<?xml version="1.0" encoding="iso-8859-1"?>
<!-- Generator: Adobe Illustrator 25.0.0, SVG Export Plug-In . SVG Version: 6.00 Build 0)  -->
<svg version="1.1" id="Layer_1" xmlns="http://www.w3.org/2000/svg" xmlns:xlink="http://www.w3.org/1999/xlink" x="0px" y="0px"
	 viewBox="0 0 2000 2000" style="enable-background:new 0 0 2000 2000;" xml:space="preserve">
<style type="text/css">
	.st0{fill:#FFFFFF;}
</style>
<g id="Dermatology">
	<g>
		<path class="st0" d="M1769.3,1128.2c-76.9,287.6-376.1,590.9-810.8,571.7c-325.4-14.3-670-285.1-719.1-573.6
			c50.2,0,99.8,0,149.4,0c100.1,0,200.2-0.3,300.2,0.1c87.7,0.4,138.7,62,122.5,147.3c-5.7,30-14.5,59.6-16.9,89.8
			c-7.4,92.3,61.3,174.2,147.5,178.6c98.5,5,170.2-61.1,172-161.6c0.7-37.2-3.3-74.9-8.7-111.8c-13.7-92.3,26.6-142,119.3-142.3
			c171-0.5,341.9-0.2,512.9-0.1C1747.2,1126.5,1756.8,1127.5,1769.3,1128.2z"/>
		<path class="st0" d="M1207.5,288.1c0,0-38.2,137.7-58.9,207.7c-64.8,219.1-118.8,440-103.1,671.5c4.9,72,14.2,143.9,15.6,215.9
			c1.2,60.5-38.6,99.5-96.7,105.6c-56.8,6-100-26.2-112.8-87.6c-4.7-22.6-5.6-47.3-2.1-70c10.5-67.1,20.9-134.5,37.2-200.4
			c65-263.3,139.8-504.6,216.4-660.6C1126.9,422.1,1207.5,288.1,1207.5,288.1z"/>
	</g>
</g>
</svg>
