<?xml version="1.0" encoding="iso-8859-1"?>
<!-- Generator: Adobe Illustrator 25.0.0, SVG Export Plug-In . SVG Version: 6.00 Build 0)  -->
<svg version="1.1" id="Layer_1" xmlns="http://www.w3.org/2000/svg" xmlns:xlink="http://www.w3.org/1999/xlink" x="0px" y="0px"
	 viewBox="0 0 2000 2000" style="enable-background:new 0 0 2000 2000;" xml:space="preserve">
<style type="text/css">
	.st0{fill:#FFFFFF;}
</style>
<g id="Endocrinology__x26__Diabetes">
	<g>
		<path class="st0" d="M742.5,777.7c0,20.2-4.4,39.7-13.1,58.3c-6.7,14.3-15.4,27.3-25.7,39.1c-1.1,1.2-2.1,2.3-3.1,3.5
			c-7.4,8.9-4.3,21.6,6.4,25.9c5.9,2.4,11.9,5,17.5,8.2c16.7,9.4,30.9,21.7,41.7,37.6c9.5,14.1,15.3,29.7,17.4,46.5
			c2,16.1,0.2,31.9-4.7,47.3c-6.1,19.7-15.7,37.2-30.1,52.1c-8.9,9.2-19,16.9-30.2,23.1c-1.4,0.9-3,1.5-4.4,2.5
			c-6.8,4.7-9,13.4-5.3,20.8c3.6,7.3,12.1,10.7,20,8.1c2-0.7,3.9-1.6,6-2.5c13.5-5.8,27.7-8.2,42.3-6.8
			c36.4,3.2,62.4,26.5,72.6,56.6c6.1,18.1,6.5,36.4,1.2,54.8c-0.5,1.6-1,3.3-1.3,4.9c-1.6,6.6,1.1,13.5,6.6,17.4
			c5.5,3.7,13.1,3.7,18.6,0c1.3-1,2.6-2.1,3.9-3.2c15.5-11.9,32.9-18.2,52.7-17.2c12.2,0.6,23.5,4.1,34.3,9.7
			c10,5.2,19,11.8,26.9,20c6.9,7.3,17.1,7.3,24.2,0.2c0.6-0.6,1.1-1.2,1.6-1.6c11.1-11.1,24.2-19.5,39.2-24.3
			c27-8.6,51.4-3.4,73.7,13.7c0.8,0.6,1.4,1.2,2.1,1.7c5.9,5.1,14.5,4.7,19.8,1.2c6-4,8.5-11.2,6.5-18.6c-1.3-4.9-2.8-9.8-3.6-14.8
			c-5.4-32.2,7.4-66.3,34.6-85.5c11.1-7.9,23.4-12.6,36.9-14.4c17.2-2.4,33.7,0.2,49.4,7.3c2.8,1.2,5.7,2.3,8.8,2.4
			c6.2,0.2,13.5-3.6,15.8-11.7c2-7-0.4-13.9-6.5-18.2c-1.3-1-2.9-1.7-4.4-2.5c-16.6-9.3-30.7-21.4-41.7-37
			c-12.6-17.9-20.6-37.7-23.2-59.4c-3.8-32.6,5.7-61.3,27.7-85.7c12.9-14.2,28.6-24.6,46.4-31.7c1-0.4,2-0.7,3-1.2
			c9.9-4.5,12.9-16.6,6.1-25.1c-0.9-1.1-1.8-2.1-2.8-3.1c-15.6-17.8-27.4-37.6-34.2-60.5c-5.2-17.5-6.3-35.2-4.5-53.4
			c2-19.9,7.3-38.9,15.9-56.9c7.8-16,17.9-30.4,31.6-42c14.5-12.5,31.3-20,50.3-22.1c16.3-1.7,32.2,0.3,47.5,6.2
			c33.8,13.1,58.3,35.9,72.1,69.5c6.1,14.8,8.4,30.4,8.2,46.4c-0.2,12.2-1.9,24.2-5.3,35.9c-1.5,5.5-1.1,10.7,2.4,15.4
			c1.8,2.4,4.1,4,6.8,5.3c5.9,2.9,11.7,6.1,17.1,9.9c19.2,13.3,33.5,30.5,41.6,52.6c5.8,15.9,7.9,32.4,6.5,49.3
			c-2,25.5-10.7,48.8-24.4,70.2c-1,1.4-1.9,2.8-2.6,4.3c-4.5,10.8,2.3,21.4,12.2,22.8c1.8,0.3,3.6,0.4,5.5,0.5
			c9.6,0.5,18.9,2.4,27.8,5.8c31.9,12.2,53.6,34.2,63.3,67c7.7,25.8,4.2,50.9-8.9,74.3c-15,26.5-37.5,43.3-67.2,50.4
			c-0.9,0.2-1.8,0.4-2.7,0.7c-6.6,1.9-11.2,7.3-11.8,13.8c-0.7,7.1,2.5,13.1,8.6,16.4c1,0.5,1.9,0.9,2.9,1.4
			c24.8,12.6,45.9,29.5,62.7,51.7c12.7,16.8,21.1,35.6,25,56.2c2.8,15.1,3.2,30.2,1.5,45.4c-1.6,15.5-5.3,30.5-11.3,44.9
			c-5.8,13.5-13.3,25.9-23.6,36.5c-15.3,15.6-33.8,24.7-55.6,27c-17.3,1.8-34-1-50.3-6.2c-3.2-1.1-6.3-2.4-9.6-3.4
			c-6.6-2-13.5,0.4-17.6,5.9c-3.6,4.8-4.2,10.1-2.1,15.7c0.5,1.4,1.2,2.8,1.9,4.2c6.7,14.5,10,29.8,8.4,45.7
			c-3.6,34.8-22.1,58.9-54.9,71.3c-20.2,7.6-40.6,7.4-60.8-0.6c-13.7-5.5-24.8-14.6-33.8-26.2c-4.7-6-8.6-12.7-11.8-19.7
			c-0.6-1.2-1.1-2.6-1.7-3.7c-4.2-7.7-13.4-10.7-21.4-6.9c-1.5,0.8-2.9,1.6-4.4,2.5c-17.7,10.6-36.6,17.5-57,19.7
			c-30.7,3.3-58.1-5.1-81.8-24.9c-19.3-16-32.1-36.5-39.9-60.2c-5.5-16.5-7.7-33.5-7.2-50.8c0-1.3,0.1-2.8,0-4.1
			c-0.6-9.7-9.2-16.5-18.8-15.2c-4.5,0.7-9.1,1.4-13.7,1.4c-28.5,0-50.9-11.8-67.5-34.8c-0.7-1-1.3-2.1-2.1-3.1
			c-6.7-8.7-19.5-8.7-26.2,0c-0.8,1-1.3,2-2.1,3.1c-13,18.2-30.3,29.8-52.4,33.8c-9.4,1.7-18.9,1.6-28.4,0
			c-6.2-1.2-11.5,0.9-15.6,5.7c-2.7,3.2-3.8,6.9-3.7,11.1c0,5.2,0.3,10.5,0,15.6c-1.9,31.8-12.4,60.3-33.4,84.5
			c-14.8,17-32.8,29-54.6,35c-14.4,4-29,4.7-43.8,2.7c-19.8-2.7-38-9.6-55-20c-2.9-1.8-5.9-3.4-9.4-3.4c-7-0.2-12.1,2.8-15.5,8.9
			c-0.7,1.2-1.2,2.5-1.7,3.7c-4.5,9.9-10.4,18.8-17.9,26.6c-14.1,14.7-31.2,23-51.5,24.6c-24,1.7-45.2-5.1-63.5-20.5
			c-14.3-12.2-23-27.7-26.7-46.2c-3.7-18.8-1.2-36.9,6.6-54.4c0.4-0.9,0.8-1.7,1.2-2.5c4.4-8.2,1.7-15.7-2.1-19.7
			c-5.7-5.7-12.1-6.4-19.5-3.6c-5.3,2-10.7,3.7-16.2,5.2c-10,2.7-20.2,4.1-30.5,4c-29.5-0.3-53.6-11.9-72.1-34.7
			c-7.8-9.6-13.7-20.3-18.3-31.8c-8.8-22.2-12.4-45.2-11-69c1.7-31.3,13.1-58.8,33.3-82.6c15.8-18.6,34.8-33.1,56.6-44.1
			c1.2-0.7,2.5-1.2,3.7-1.8c5.8-3.6,8.6-8.8,8.1-15.5c-0.7-7-4.5-11.9-11.3-14.2c-2-0.7-4.1-1.1-6.2-1.6
			c-37.4-9.6-66.8-39.6-74.8-77.4c-6.3-30.2,0.6-57.7,20-81.7c17.3-21.4,39.9-33.5,67.2-37.2c2.6-0.4,5.2-0.3,7.8-0.6
			c2.1-0.3,4.3-0.5,6.3-1.2c9.2-3.3,13.3-13.9,8.9-22.7c-0.8-1.5-1.7-2.9-2.7-4.3c-10.5-16.3-17.9-33.9-21.8-52.9
			c-3.8-19.6-3.7-39.1,1.8-58.3c7.3-25.5,22.5-45.5,44.3-60.4c5.1-3.5,10.6-6.2,15.8-9.3c1.2-0.7,2.5-1.2,3.6-1.9
			c5.8-3.7,8.5-10.5,7-17.2c-1.1-4.9-2.5-9.8-3.5-14.8c-4.3-23.3-3.1-46.2,5.4-68.4c9.3-24.3,25.4-43.2,46.9-57.6
			c13.1-8.7,27.2-14.9,42.6-17.8c34.8-6.4,64.7,3.1,89.2,28.7c12.6,13.1,21.5,28.7,28.1,45.6c7.6,19.4,11.5,39.4,11.8,60.7h0.2
			L742.5,777.7z"/>
		<path class="st0" d="M938,1222.3c-0.2-1-0.3-1.6-0.4-2.4c-0.5-10.8-0.1-154.6,0.4-158.5c0.8,0,1.6-0.4,2.5-0.5H1071
			c0.2,1.2,0.5,2,0.6,2.9V1216c0,1.9,0.4,3.9-0.6,6.2c-24.9,2.8-46.6,12.9-66.3,28.5c-6.6-5-13.2-9.7-20.3-13.6s-14.6-7.2-22.3-9.8
			C954.4,1224.8,946.3,1223.3,938,1222.3L938,1222.3L938,1222.3L938,1222.3z"/>
		<path class="st0" d="M1071.3,455.1H941c-0.9,0-1.8-0.1-2.8-0.2c-0.8-1.8-0.6-3.5-0.6-5.1v-54.3c0.2-27.6,18.1-53.8,45.6-63
			c37.6-12.5,75.2,9.1,85.7,45.4c1.8,6.2,2.7,12.6,2.7,19.1v53C1071.6,451.5,1071.5,453,1071.3,455.1L1071.3,455.1L1071.3,455.1z"/>
		<path class="st0" d="M938.2,683.9c-0.2-0.6-0.5-1-0.5-1.3v-77.8c0-0.6,0.2-1.2,0.4-1.7c1.7-0.9,3.4-0.5,5.1-0.5h123
			c1.6,0,3.4-0.3,5,0.4c0.2,0.6,0.5,1,0.5,1.4v78.3c0,0.4-0.3,0.9-0.5,1.5c-0.9,0-1.7,0.3-2.6,0.3H943.8c-1.8,0-3.6,0.3-5.4-0.5
			L938.2,683.9L938.2,683.9L938.2,683.9z"/>
		<path class="st0" d="M938.2,946.5c0.6,0,1.2-0.4,1.7-0.4h130.9c0.3,1.1,0.5,1.9,0.7,2.8v75c0,1.1-0.1,2.1-0.2,3.5
			c-0.9,0.2-1.7,0.6-2.6,0.6c-1.2,0-2.5,0-3.6,0H944c-40.4,0-3.6,0-5.7,0c-0.3-1.1-0.6-1.9-0.6-2.8c-0.1-1.1,0-2.1,0-3.3v-70
			C937.8,950.2,937.5,948.4,938.2,946.5L938.2,946.5L938.2,946.5L938.2,946.5z"/>
		<path class="st0" d="M937.8,717.6c3.7-0.6,124.8-1,131.3-0.5c0.8,0,1.4,0.4,2.1,0.6c0.6,4.7,0.5,77-0.1,80.9
			c-0.8,0-1.6,0.3-2.5,0.4H943.8c-1.8,0-3.6,0-5.8,0c-0.2-1.4-0.4-2.6-0.4-3.7V723c0-1.6,0-3.4,0.1-5.2l0,0L937.8,717.6L937.8,717.6
			z"/>
		<path class="st0" d="M1071.2,832.2c0.1,0.6,0.4,1.2,0.4,1.7v78.9c-1.1,0.3-1.9,0.6-2.8,0.7c-1.2,0-2.5,0-3.6,0h-121
			c-1.9,0-4,0.4-5.9-0.5c-0.7-3.3-1-41.3-0.6-76.8c0-1.3,0.2-2.7,0.3-4.1c0.9,0,1.4-0.3,2-0.3h129.8
			C1070.1,831.9,1070.6,832.1,1071.2,832.2L1071.2,832.2L1071.2,832.2z"/>
		<path class="st0" d="M938,569.6c-0.2-1.2-0.3-1.9-0.3-2.7c-0.4-10-0.1-74.6,0.4-78.5c0.8-0.2,1.6-0.4,2.5-0.5h130.1
			c1.3,1.8,0.9,3.6,0.9,5.2v58.1c0,19.4,0,9.5,0,14.3s-0.2,2.4-0.3,3.6c-0.8,0.2-1.3,0.5-1.9,0.5L938,569.6L938,569.6z"/>
	</g>
</g>
</svg>
