<?xml version="1.0" encoding="iso-8859-1"?>
<!-- Generator: Adobe Illustrator 25.0.0, SVG Export Plug-In . SVG Version: 6.00 Build 0)  -->
<svg version="1.1" id="Layer_1" xmlns="http://www.w3.org/2000/svg" xmlns:xlink="http://www.w3.org/1999/xlink" x="0px" y="0px"
	 viewBox="0 0 2000 2000" style="enable-background:new 0 0 2000 2000;" xml:space="preserve">
<style type="text/css">
	.st0{fill:#FFFFFF;}
</style>
<g id="ENT">
	<g id="Pediatric_Immunology__x26__Allergy">
		<path class="st0" d="M1487.8,1432.9c-0.1-1-0.3-2-0.5-2.9c-31.8-142.6,87.8-348.3,101.3-371.1c92.1-103.1,80.7-300.8,79.8-315.4
			c-3.5-107.2-37.5-192.1-65.4-244.5c-28.1-52.8-55.7-84.1-60.9-89.8c-67.7-83.4-151.9-143-250.3-176.9
			c-78.4-27-165.7-37.9-259.5-32.2c-152.2,9.3-270.1,58.6-283.6,64.4c-75.9,26.5-139.6,76.3-189.3,148
			c-39.3,56.7-58.4,110.7-66.5,133.8c-0.8,2.3-1.7,4.7-2.2,6.2c-0.8,1.4-1.6,3-2.5,4.9c-9.2,20.7-38.9,117.8-42.4,129.5
			c-8.4,26.9-3,80.2-1.9,90.7c0.4,3.7,1.6,7.2,3.4,10.5c15.3,27.3,3.6,47.2,0.3,52c-9.4,9.4-25.4,30.6-34.7,43.2
			c-25.3,33.7-62.8,98.8-64.3,101.6c-1,1.8-1.8,3.6-2.4,5.5c-14.7,47.1-2.6,79.6,10.2,98.6c13.7,20.4,30.8,29.5,34.1,31.1
			c12.7,6.2,28,2,35.7-10l26.9-42c8.3-12.9,4.5-30.1-8.4-38.4c-12.9-8.3-30.1-4.5-38.4,8.4l-7.8,12.2c-4.6-11.1-4.6-24.8-0.1-40.6
			c7.4-12.7,38.6-66,59.1-93.3c0-0.1,0.1-0.1,0.1-0.2c11-14.9,25.4-33.2,29.4-37c1-0.9,1.9-1.8,2.7-2.8c1.9-2.3,11.8-14.6,17.3-34.4
			c4.9-17.7,7.3-44.8-8.2-75.8c-1.8-19.2-3.2-51.9,0.2-62.8c0-0.1,0.1-0.2,0.1-0.3c12.2-40.2,33.7-108.6,39.9-122.8
			c2.3-3.6,3.7-7.8,6.5-15.6C591,435.5,665.9,352,768,316.7c0.7-0.3,1.5-0.5,2.2-0.8c1.2-0.5,118.5-51.6,267.3-60.3
			c195.8-11.5,351.2,52.2,462.1,189.4c0.4,0.6,0.9,1,1.4,1.6c0.3,0.3,27,29.1,54,80.4c24.7,47,54.9,123.1,57.9,218.9
			c0,0.3,0,0.7,0.1,1.1c0.1,1.9,12.3,190.1-67.1,276.5c-1.2,1.3-2.2,2.7-3.2,4.2c-1.5,2.4-37.3,60.6-68.9,139.9
			c-43,108.1-56.8,200-41,273c2.4,19.5,25.9,196,119,301.7c5.5,6.2,13.2,9.4,20.9,9.4c6.5,0,13.1-2.3,18.4-6.9
			c11.5-10.1,12.6-27.7,2.5-39.2C1508.6,1609.2,1488,1434.6,1487.8,1432.9z"/>
		<path class="st0" d="M459.5,1217c11.6-3.5,36-24.2,36-24.2c7.8-23.8-1.4-55-1.4-55c-4.4-5.7-35.3,26.9-35.3,26.9
			s3.7,27.4-6.1,52.3L459.5,1217L459.5,1217z"/>
		<path class="st0" d="M730.6,1472c-60,0-135.9-10.5-135.9-10.5c-74.7-9.3-67.8-63.3-67.8-63.3c15-65.3,8.1-88.8,8.1-88.8
			c-2.4-20.7-25.2-47.1-25.2-47.1l-49.3,6.5c0,0-1.2,25,24.3,45.6c0,0,5.7,17.2-8.6,62.2c-0.2,0.5-0.4,1.1-0.5,1.7
			c-15,46.2,19.1,118.4,97.4,134.5c0,0,163.1,6.7,173.4,19.5c0,0,55.4,26,88.8,246.1l50.9-2.8c-11.4-112.4-48.3-196.4-48.3-196.4
			C808.5,1474.8,730.6,1472,730.6,1472z"/>
		<path class="st0" d="M1137.1,744.6c-62.7-2.4-83.4,63.9-83.4,63.9l53.3-4.9c78.8-53.6,100.1,67.5,100.1,67.5
			c7.3,89.5-52.9,143-52.9,143c-22.5,15.2-42.6,49.3-42.6,49.3c-29.8,46.2-55.4,3-55.4,3l-49.9-3c-9.1,30.4,25.6,59,25.6,59
			c0.8,0.5,1.6,0.9,2.4,1.4c64.5,35.1,111-16.9,130.2-47c19.5-30.4,42-53.6,42-53.6c40.2-35.9,47.5-121.7,47.5-121.7
			C1261.2,734.9,1137.1,744.6,1137.1,744.6z"/>
		<path class="st0" d="M1043,1315.6c0,0-155.8-260.5-15.2-328.6l9.7-40.2c0,0-76.7,15.2-98.6,129.6c0,0,6.9,21.9-52.5-65.1
			c0,0-250.5-213.6-429.4,74.2l-34.7,51.6l38.3,8.7c0,0,128.4-121.7,285.4-63.3c0,0,90.1,29.2,41.4,31.6c0,0-148.5-55.5-239.8,62.9
			c0,0-43.8,52.1-94.9,59.4c0,0-3,20.7,18.3,13.4c0,0,180.1-35.2,327.4,1.6c0,0,136.6,29.9,208.9,260.3c0.2,0.7,0.5,1.5,0.7,2.2
			c72.1,232.5,72.1,236.7,75.8,268.4c0,0,133.3,25,118.7-14C1202.5,1768.4,1077.7,1380.1,1043,1315.6z"/>
	</g>
</g>
</svg>
