<?xml version="1.0" encoding="iso-8859-1"?>
<!-- Generator: Adobe Illustrator 25.0.0, SVG Export Plug-In . SVG Version: 6.00 Build 0)  -->
<svg version="1.1" id="Layer_1" xmlns="http://www.w3.org/2000/svg" xmlns:xlink="http://www.w3.org/1999/xlink" x="0px" y="0px"
	 viewBox="0 0 2000 2000" style="enable-background:new 0 0 2000 2000;" xml:space="preserve">
<style type="text/css">
	.st0{fill:#FFFFFF;}
</style>
<g id="Gastroenterology__x26__Endoscopy">
	<g>
		<path class="st0" d="M1726.4,1048.3c-0.8,116.5-25.7,218.6-77,313.9c-23.5,43.7-53.2,83-87.9,118.5
			c-71.7,73.3-157.5,124-253.8,157.7c-43.2,15.1-87.5,25.8-132.7,32.5c-30.4,4.5-61,7.1-91.8,7.8c-32.4,0.8-64.8-0.6-96.9-4.4
			c-82.2-9.9-159.9-33.5-230-78.9c-9.3-6-18.3-12.7-27.2-19.3c-2.9-2.1-5.5-2.6-9-2.4c-19.3,1.1-38.7,2.9-58,2.6
			c-44-0.5-83.9-14.8-120.3-39.2c-1.4-0.9-2.7-1.8-4.1-2.6c-9.2-5.5-16.7-5.1-25.2,1.3c-9.4,7-15.3,16.7-20,27.2
			c-9.5,21.5-12.4,44.2-11.5,67.5c0.7,17.4-11.5,33-28.2,35.6c-17.8,2.8-34.7-7.6-38.3-24.9c-1.9-9-1.5-18.6-1.2-27.9
			c0.8-23.6,5.1-46.5,13.5-68.6c8.6-22.5,20.7-42.6,39.1-58.6c19.1-16.5,41.1-24.8,66.5-23c16.7,1.2,31.7,7.5,45.6,16.7
			c16,10.6,33,19.2,51.7,24.1c20.5,5.3,41.3,5.6,62.2,4.2c13.9-0.9,27.7-2.9,41.6-4.1c8.9-0.8,16.9,1.9,23.8,7.7
			c57.2,48.1,124,74.8,196.5,88.9c29.2,5.7,58.6,8.9,88.3,9.9c109.3,3.7,213.5-17.8,312.3-64.8c52-24.7,99.3-56.5,141.5-95.8
			c55.1-51.5,96-112.5,122.9-182.9c15.5-40.6,26.9-82.3,33.3-125.3c3.7-24.4,5.7-48.9,6.2-73.6c1.8-92.1-17.1-179.7-57.9-262.3
			c-23.5-47.5-53.6-90.4-91.5-127.6c-45.4-44.5-97.8-77.3-159.7-93.7c-29.3-7.8-59.1-11.3-89.3-10.1c-40.4,1.7-79.6,9.2-116.4,26.5
			c-46.3,21.8-80,56.4-102.4,102.2c-7.1,14.5-18.2,21.6-34.4,21c-54.8-2-104.2-18.7-146.8-53.7c-34.9-28.6-59.2-64.8-75-106.9
			c-6.6-17.6,2.5-36.8,19.7-43.3c17.7-6.7,37,1.9,44,19.9c9.5,24.4,22.6,46.5,40.8,65.4c23.9,24.7,52.9,40,86.4,47
			c3.4,0.7,7,0.9,10.4,1.8c2.9,0.8,4.1-0.5,5.4-2.7c11.9-20.4,26.1-39,42.7-55.7c36.8-37.2,81.1-61.5,131.4-75.2
			c30.4-8.2,61.4-13.1,92.9-14.1c62-2,120.8,10.8,176.6,37.4c70.1,33.4,126.5,83.1,172.7,144.9c47.1,63,79.1,133.2,98.5,209.2
			c8.6,33.5,14.6,67.5,17.2,102C1725.1,1018.9,1725.8,1037.7,1726.4,1048.3z"/>
		<path class="st0" d="M1272.4,1216.7c-3.7,8.9-7.1,17.1-10.5,25.3c-1.9,4.8-4.2,9.4-5.6,14.4c-2.5,9,2.3,18,10.9,21.4
			c9,3.5,19.2,0.1,23.1-8.6c5.8-12.7,11-25.6,16.2-38.6c2.1-5.3,0.9-10.6-2.1-16.5c5.1,0,9.7,0,14.2,0c14.9,0,29.8,0.1,44.6,0
			c2.8,0,4.1,0.9,4.9,3.6c2.2,7.2,4.7,14.4,7.1,21.6c2.8,8.2,10.6,13.7,18.6,13.1c9-0.7,16.1-6.9,17.4-16c0.4-3.1-0.4-6.4-1.1-9.5
			c-0.8-3.5-2.1-6.9-3.5-11.1c47.2,3.3,93.5,7.2,139.5,18.1c-0.6,1.8-0.9,3.1-1.3,4.3c-22.7,60.5-56.5,114-101.5,160.3
			c-66.1,68-145.7,113-237.2,137.5c-23.3,6.2-46.9,10.6-70.8,13.6c-27.1,3.4-54.3,4.5-81.5,3.2c-108.1-5.2-204.6-41-288.5-110
			c-1.3-1-2.5-2.1-3.7-3.1c-0.2-0.2-0.2-0.5-0.4-0.8c0.2-0.2,0.5-0.6,0.8-0.7c21.4-7.8,42.7-15.5,64.1-23.3
			c20.8-7.6,42.2-12.3,64.4-13.6c21.3-1.2,42.4,1,63.5,3.2c16.7,1.8,33.5,2.4,50.1-0.7c21.5-4,36.3-17.2,47.4-35.2
			c7-11.4,14-22.9,21.4-34.1c14.2-21.7,33.4-38.3,54.3-53.2c14.8-10.6,28.8-22.1,41.4-35.3c9.2-9.5,21.5-13.9,33.9-17.7
			c19.2-5.8,39-8.9,58.9-10.7c1.7-0.2,3.5-0.6,5.2-0.7C1268.3,1216.6,1269.9,1216.7,1272.4,1216.7z"/>
		<path class="st0" d="M566.9,1277.2c60.3-0.1,112.3,12.9,162.4,34c3,1.2,5.2,1.1,7.9-0.4c30.8-16.3,62.2-31.2,95.8-40.9
			c26.4-7.6,53.3-12,80.8-13c8.8-0.3,17.6-0.5,26.4-0.5c2.4,0,3.7-0.7,4.8-2.7c12.4-21.2,27.2-40.6,45.3-57.2
			c12.4-11.5,26-21.7,39.2-32.3c2.2-1.8,3-3.2,2.5-6c-7.2-38.9-7.6-77.8-0.7-116.8c0.5-2.8-0.1-4.8-2.1-6.9
			c-32.1-33.9-54-73.7-67.5-118.1c-0.9-2.8-2.2-4.1-5-5.1c-35-11.7-70.3-22.8-105-35.5c-39.1-14.3-75.5-34.1-107.9-60.7
			c-35.2-29-62.7-64.4-84.9-103.9c-15.1-26.8-27.6-54.9-38.3-83.7c-8.1-22,5.5-43.7,28.8-46.4c14.4-1.6,28.5,7.6,34.5,22
			c8,19.1,15.8,38.3,25,56.8c23.1,46,54.4,85.4,97,115.1c30,21,63.1,35.7,97.6,47.5c31.2,10.7,62.7,20.7,94.1,30.9
			c13.5,4.4,21.4,13.4,24.6,27.1c8.5,36.4,24,69.5,48.2,98.3c6.3,7.4,13.2,14.3,20.3,21c9.8,9.3,13.2,20.5,10.7,33.6
			c-3.9,19.8-7,39.7-7.4,60c-0.5,24.4,3.6,48.3,8.3,72.1c1.2,6,2.2,12.4,1.5,18.4c-1.3,11.5-7.9,19.7-18.1,25.4
			c-36.7,20.3-65.5,48.7-85.9,85.5c-2,3.5-3.5,7.3-5.4,10.9c-6.5,12.8-16.8,19.6-31.2,19.6c-14.8,0-29.5-0.9-44.3-0.6
			c-42.6,1-82.5,12.8-120.5,31.4c-15.6,7.6-30.9,15.6-46.2,23.8c-11,5.8-21.8,6.5-33.1,1.2c-31.4-14.7-63.9-25.9-98.2-31.8
			c-47.9-8.1-94.8-5.8-139.9,13.8c-50.4,21.9-85.4,59.3-107.5,109.1c-12.4,28-19.2,57.4-22,87.8c-2.2,24-1.2,47.9,0.4,71.8
			c1.2,17.4-11.4,31.8-27.8,34.4c-21.1,3.4-38.5-10.8-39.8-32.1c-0.9-15.5-2.2-31.1-2.1-46.7c0.6-54.6,10.6-107.2,35.5-156.2
			c40.4-79.3,104.1-128.8,191.2-147.7C529.9,1278.9,551.1,1276.9,566.9,1277.2z"/>
		<path class="st0" d="M1318.1,1102.8c0.5-8,1.3-15.7,1.5-23.4c0.2-12.6,0.5-25.2,0-37.8c-1.7-38.9-10.9-75.5-35.1-107.1
			c-18.4-24.1-41.9-42.2-67.9-57.3c-39.6-23.1-82.3-38.5-126.5-50.1c-36.6-9.6-73.4-18.7-109.7-29.5c-50.1-15-97.6-36.7-143.1-62.4
			c-35.4-20-62.8-48.7-85.9-81.7c-29.6-42.3-50.4-89-67.2-137.6c-16.3-47.2-27.9-95.5-36.4-144.6c-2.6-15-4.5-30.2-6.6-45.3
			c-1-7.3,4.7-14.8,11.7-15.6c9-1.1,15.7,4,16.8,12.5c9.8,75,27,148.1,54.9,218.6c12.3,31.1,27.2,60.8,45.6,88.8
			c26.3,40.1,60.3,70.9,103.5,92.6c57.9,29.2,118.2,51,181.2,66.1c33,7.9,66,16,98,27.6c40.6,14.7,79.1,33.4,113.6,59.8
			c41.8,32,68.3,73.4,77.6,125.5c4.3,24,4.8,48.2,4.1,72.4c-0.3,12.2-1.3,24.3-2.2,36.4c-0.2,2.8,1.3,3.5,3.3,4.3
			c8.8,3.5,14.5,9.7,17.1,18.8c1.6,5.5,1.3,11-0.6,16.3c-3.4,9.6-6.8,19.1-10.5,28.6c-5.8,14.7-20.6,21.5-35.5,16.3
			c-9.7-3.4-19.4-6.9-28.9-10.7c-13.4-5.3-20.5-19.9-16-33.6c3.5-10.7,7.2-21.3,11.7-31.6c4.5-10.2,13-15.7,24.4-16
			C1313.1,1102.7,1315.2,1102.8,1318.1,1102.8z"/>
		<path class="st0" d="M1209.4,1181.3c-7.8-0.4-14.8-5.7-16.5-13c-2-8.2,1.4-16,9.1-19.8c11.9-5.9,24-11.4,36.1-16.9
			c2-0.9,4.5-1.2,6.7-1.2c7.9-0.1,14.4,4.9,16.5,12.4c2.1,7.6-1,15.9-8.1,19.4c-12.4,6.2-24.9,11.9-37.5,17.6
			C1213.7,1180.8,1211.5,1180.9,1209.4,1181.3z"/>
		<path class="st0" d="M1405,1214.6c-5-0.4-8.7-0.7-12.4-0.9c-7-0.3-14-0.5-21-0.9c-1.3-0.1-3.5-0.6-3.8-1.4
			c-2.3-6.4-5.9-12.7-3.2-19.9c2.4-6.5,7-10.6,13.9-11.4c7.6-0.9,14.1,1.7,17.3,8.7C1399.3,1196.7,1401.6,1205.2,1405,1214.6z"/>
	</g>
</g>
</svg>
