<?xml version="1.0" encoding="iso-8859-1"?>
<!-- Generator: Adobe Illustrator 25.0.0, SVG Export Plug-In . SVG Version: 6.00 Build 0)  -->
<svg version="1.1" id="Layer_1" xmlns="http://www.w3.org/2000/svg" xmlns:xlink="http://www.w3.org/1999/xlink" x="0px" y="0px"
	 viewBox="0 0 2000 2000" style="enable-background:new 0 0 2000 2000;" xml:space="preserve">
<style type="text/css">
	.st0{fill:#FFFFFF;}
</style>
<g id="General_Surgery">
	<g>
		<path class="st0" d="M1026.6,1173.1c278.5,0,505.1-114,505.1-254.1c0-34.3-13.6-66.9-38.1-96.8
			c-29.3-118.2-128.5-216.5-262.2-266.6v-36.2c0-13.7-12.1-24.9-26.9-24.9H812.9c-14.9,0-27,11.2-27,24.9V574
			c-107.7,51.7-187.2,136.6-216.2,236.8c-30.9,32.9-48.2,69.5-48.2,108.2C521.6,1059.1,748.1,1173.1,1026.6,1173.1z M669.4,961.5
			c15.7-14.4,38.1-24.5,63.1-28.5c7.6-1.2,15.2-1.8,22.4-1.8c41.2,0,74.7,18.6,79.1,46.2c2.4,15.4-4.5,31.4-19.6,45.3
			c-15.7,14.4-38.1,24.5-63.1,28.5s-49.4,1.3-68.8-7.5c-18.7-8.5-30.3-21.6-32.7-37C647.3,991.4,654.3,975.3,669.4,961.5z
			 M839.7,801.2c2.9,11.4-41.8,40.4-118.3,59.9c-34.5,8.8-67.7,13.6-93.5,13.6h-0.1c-28.8,0-38-6.1-38.9-9.7
			c-0.9-3.6,4.3-13.4,29.7-27.2c22.7-12.3,54.2-23.9,88.6-32.7s67.7-13.6,93.5-13.6c0.1,0,0.1,0,0.2,0
			C829.6,791.5,838.8,797.6,839.7,801.2z M1023.6,768.6c-73.5,0-118.7-17.1-118.7-29.3s45.2-29.3,118.7-29.3s118.7,17.1,118.7,29.3
			C1142.3,751.6,1097.1,768.6,1023.6,768.6z M1028.9,936.1c-62,0-114.5-25.5-114.5-55.7s52.4-55.7,114.5-55.7
			c62,0,114.5,25.5,114.5,55.7C1143.3,910.6,1090.9,936.1,1028.9,936.1z M1022.9,1000.8c66.7,0,123.1,23.8,123.1,52.1
			c0,28.2-56.4,52.1-123.1,52.1s-123.1-23.8-123.1-52.1C899.8,1024.6,956.2,1000.8,1022.9,1000.8z M1364.1,805.1
			c34.5,8.8,65.9,20.4,88.6,32.7c25.4,13.8,30.6,23.6,29.7,27.2c-2.9,11.4-56,15.5-132.6-3.9c-76.6-19.5-121.2-48.5-118.3-59.9
			C1234.4,789.8,1287.5,785.7,1364.1,805.1z M1236,968.4c2.4-15.4,14.1-28.5,32.7-37c13.5-6.1,29.5-9.3,46.4-9.3
			c7.3,0,14.9,0.6,22.4,1.8c50.8,8.1,87.9,41.1,82.8,73.7c-5.2,32.6-50.7,52.5-101.5,44.4c-25-4-47.4-14.1-63.1-28.5
			C1240.6,999.8,1233.6,983.7,1236,968.4z"/>
		<path class="st0" d="M1076.6,459l200.3-112.9l-67.4-120.2l-209.4,120.2c0,0-89.2,32.8-58.3,112.9
			C941.9,459,969.2,526.3,1076.6,459z M965.9,402.9c1.7-5.3,4.6-9.8,8.8-13.7c7.7-7.7,19.1-12.4,30-12.4c11.5,0,21.7,4.8,30,12.4
			c8.3,7.6,11.9,19,12.4,30c0.2,5.8-1,11.3-3.7,16.3c-1.7,5.3-4.6,9.8-8.8,13.7c-7.7,7.7-19.1,12.4-30,12.4
			c-11.5,0-21.7-4.8-30-12.4s-11.9-19-12.4-30C962,413.4,963.3,407.9,965.9,402.9z"/>
		<path class="st0" d="M1004.5,452.5c18.1,0,32.8-14.7,32.8-32.8c0-18.1-14.7-32.8-32.8-32.8s-32.8,14.7-32.8,32.8
			C971.7,437.8,986.4,452.5,1004.5,452.5z"/>
		<path class="st0" d="M1575.1,1512.3c-4.8-9.6-11.9-17.3-20.4-23.6c-22.7-16.7-48.2-24.6-76.3-22.1c-16.5,1.5-31,7.4-40.3,22.4
			c-0.2,0.2-0.7,0.2-0.2,0.1c-5.3-5-10.3-9.8-15.4-14.6c0.1-0.5,0.1-1.1,0.2-1.7c8.4-36.8,16.8-73.7,25.4-110.5
			c4.7-20.3,7-40.6,2.9-61.2c-2.7-13.4-7.3-25.9-16.8-36.1c-5.3-5.8-11.6-10.1-20.4-11.8c-14.9,64.9-29.8,129.6-44.8,195
			c-32.3-10.7-63.7-21.1-95.1-31.5c-31.6-10.4-63-21.1-94.6-31.3c-2.5,7-2.9,12.7-1.7,18.8c2.4,12.6,9,23,17.6,32.1
			c14.9,15.8,33.4,26,53.8,32.8c36.4,12.1,72.9,24.2,109.3,36.3c2.1,0.7,4.2,1.5,5.8,2.1c1.8,7.2,3.4,13.7,5,20.6
			c-8.8,0.4-16.9,2.4-24.1,7.1c-7.7,5-14.1,11.3-19.1,18.9c-16.2,24.6-22.2,51.5-17.5,80.5c1.7,10.5,5.6,20.2,12.6,28.5
			c11,13,27.1,16.7,42.7,9.7c7.2-3.2,13.5-7.8,18.5-13.9c22.9-28,30.5-59.7,22.6-95c-0.9-4.2-1.4-8.1-0.3-12.3
			c2.4-9.3,4.4-18.7,6.7-28.3c1.7,0.4,2.9,0.5,4.1,0.9c8.8,2.9,17.6,5.7,26.2,8.8c2.4,0.9,4.6,2.7,6.6,4.4
			c5.2,4.3,9.8,9.2,15.3,13.1c16,11.2,34,17.4,53.3,19.3c13.9,1.4,27.7,0.3,40.7-5.9C1578.4,1553.9,1585.6,1533.1,1575.1,1512.3z
			 M1380.2,1636.8c-3.9,6.8-8.7,12.9-14.8,17.8c-14.9,12-29.7,8.6-38.1-8.6c-4.2-8.7-5.8-18-6-27.5c-0.2-17.3,3.6-33.8,12.1-48.9
			c2.9-5.1,6.4-9.9,10.2-14.3c2.8-3.3,6.4-6.1,10.1-8.4c11.6-7.1,23-4.5,30.6,6.8c4.6,6.8,6.7,14.4,7.9,22.4
			c0.6,4.1,0.6,8.4,0.8,10.6C1393,1605.8,1388.8,1621.9,1380.2,1636.8z M1391.8,1504.4c-10.1-0.1-17.8-8-17.7-18.1
			c0.1-10,8.2-17.9,18.2-17.7c10,0.2,17.9,8.3,17.8,18.3C1410,1496.8,1402,1504.5,1391.8,1504.4z M1552.7,1549.8
			c-9.1,4.9-19.1,6.3-29.3,5.8c-20-1-38.4-7-54.4-19.2c-4.5-3.4-8.4-7.6-12.2-11.7c-2.2-2.4-4-5.5-5.4-8.5
			c-5.9-12.4-2.3-23.3,9.8-29.8c8.5-4.6,17.9-5.8,28.6-6c20.2,0.9,39.7,7.2,56.7,20.4c6.7,5.2,12.4,11.3,16.1,19.1
			C1568.4,1532.4,1564.8,1543.3,1552.7,1549.8z"/>
		<path class="st0" d="M671.1,1558.3c-4-3.4-8.2-6.6-12-10.2c-5.1-4.6-5.6-11.5-1.7-17.1c0.8-1.2,1.9-2.3,2.8-3.4
			c56-67.1,112.1-134.2,168.1-201.3c1.3-1.5,3-2.9,4.8-3.8c13.8-7.3,26.8-15.7,38.2-26.5s19.5-23.6,22.9-39.1c1.8-7.9,3-16-0.8-24.2
			c-2.2,12.2-5.5,23.9-12.9,34.1c-7.3,10-14.7,19.6-25.6,26.1c0.7-2,1.8-3.6,2.8-5.3c5.1-8.9,10.7-17.6,15.1-26.9
			c3-6.4,4.4-13.5,6.1-20.4c0.9-3.9,0.3-7.9-2.5-11.6c-0.6,1-1.2,1.6-1.4,2.3c-6,18.2-15.4,34.4-27,49.5
			c-8.3,10.8-16.9,21.5-25.4,32.2c-1,1.3-2.2,2.6-3.6,3.3c-5.8,3-11.6,5.8-17.5,8.5c-42.4,19.4-84.7,38.8-127.1,58.1
			c-30.2,13.8-60.5,27.1-90.6,41.2c-11.3,5.3-18.9,4.3-24.1-9.3c-1.3-3.5-3-6.9-4.6-10.4c-10.1-21.5-32.1-34.9-55.7-32.3
			c-24.1,2.6-44.6,13.5-60.2,32.2c-24.3,29.2-1.2,68.5,25.2,74.9c3.2,0.8,6.6,1.2,9.9,1.4c9.5,0.6,18.3-2,26.8-5.8
			c19.1-8.6,38.2-17.3,57.4-25.9c8.2-3.7,13.4-2.1,18.3,5.4c5.3,8.1,10.5,16.2,15.8,24.3c1,1.5,2.2,3,3.5,4.8
			c4.6-2.6,8.8-5.1,13.3-7.7c-1.4-2.4-2.3-4-3.3-5.6c-4.1-6.4-8.2-12.7-12.2-19.2c-1.3-2.1-2.5-4.5-2.9-6.9
			c-1.1-6.4,1.9-10.9,9.6-14.3c65.4-29.7,130.7-59.3,196.1-89c1-0.4,2-0.7,3.8-1.3c-0.9,1.4-1.2,2-1.6,2.5
			c-46.5,55.9-93,111.7-139.6,167.6c-6.6,8-14.2,8-21.4,0.2c-5.6-6-11-12.2-16.5-18.2c-1.1-1.2-2.4-2.1-3.8-3.4
			c-3.8,3.6-7.3,6.9-11.1,10.4c1.6,1.9,2.9,3.5,4.3,5.1c6,6.8,12,13.5,18,20.2c7.5,8.5,7.5,13.1,0.2,22c-2.8,3.4-5.6,6.8-8.5,10.2
			c-10.2,12.3-20.5,24.5-30.7,36.8c-6.7,8-11.9,16.9-13.4,27.4c-2.7,19.5,5.4,34.4,20.6,45.8c14.7,11,30.7,12.1,46.9,4
			c19.4-9.8,34-24.7,42.9-44.5C698,1601.1,691.6,1575.5,671.1,1558.3z M536.6,1437.8c-3.1,4.2-6.5,8.4-10.5,11.6
			c-13.9,11.1-29.6,18.5-47.5,20c-15.3,1.2-26.8-5.6-34.4-18.8c-7.4-13-8.3-26.6,1.3-38.4c15.4-18.9,35.4-30.3,60.4-29.9
			c19.1,0.3,36.5,18.3,36.6,36.6C542.6,1425.9,540.6,1432.3,536.6,1437.8z M676.4,1625.1c-8.1,15-19.5,27-34.3,35.1
			c-22.3,12.2-48.2,0.2-54.1-24.7c-1.9-7.9-0.9-15.6,2.5-22.8c7.8-16.8,19.2-30.6,35.1-40.2c8.5-5.2,17.7-7.7,27.7-5.4
			c16.2,3.7,28.2,20.1,28.2,38.1C681.5,1612.2,679.7,1618.9,676.4,1625.1z"/>
		<path class="st0" d="M1137.9,1443.7c-5.7-0.2-11.3-0.1-17,0c-1.4,0-2.8,0.5-4.1,0.7c0,34.8,0,69.2,0,104.3c5.2,0,10-0.1,14.7,0
			c2.1,0,4.3,0,6.2,0.6c5.6,1.7,9.3,7.4,8.7,13.1c-0.6,6.1-5.5,10.8-11.8,11.1c-4.8,0.3-9.7,0-14.5,0.2c-1.2,0-2.3,0.8-3.5,1.2
			c1.7,1.4,3.3,1.7,4.9,1.8c4.2,0.1,8.4-0.2,12.6,0.1c7.3,0.5,12.3,6,12.3,12.7c0,5.5-4.7,12.8-13.2,12.2c-4.4-0.3-8.8-0.1-13.2,0
			c-1.2,0-2.3,0.8-3.4,1.3c0.1,0.5,0.1,1,0.2,1.5c1.7,0.2,3.4,0.6,5.2,0.7c4.4,0.1,8.8-0.1,13.2,0.2c5.5,0.3,9.3,3.7,10.8,9
			c1.4,4.9-0.4,10.6-4.9,13.2c-2.4,1.4-5.5,2.2-8.3,2.4c-4.4,0.4-8.8,0.1-13.2,0.2c-1,0-1.9,0.8-2.8,1.2c0.1,0.4,0.1,0.8,0.2,1.2
			c1.7,0.2,3.5,0.5,5.3,0.5c4.2,0.1,8.4-0.1,12.6,0.1c6.8,0.4,11.7,5.9,11.6,12.5c-0.1,6.3-4.8,11.6-11.3,12.2
			c-3.5,0.3-7.1,0.1-10.7,0.1c-2.4,0-4.9,0-7.7,0c0,35.2,0,69.6,0,104.8c8.1,0,15.4,0.3,22.7-0.1c6.1-0.3,10.5-4.6,11.7-10.6
			c0.5-2.4,0.6-5,0.6-7.5c0-94.4,0-188.7,0-283.1c0-1.9,0-3.8-0.2-5.7C1150.5,1448.4,1145.6,1444,1137.9,1443.7z"/>
		<path class="st0" d="M1106.5,1658.3c-5.5-0.1-10.9-0.1-16.4-0.3c-7.8-0.2-13.2-5.3-13.4-12.2c-0.2-7.2,5.5-12.5,13.5-12.7
			c4.8-0.1,9.7,0,14.5-0.1c1,0,2-0.7,3-1.1c0-0.4-0.1-0.9-0.1-1.3c-1.7-0.2-3.4-0.5-5.1-0.6c-4.4-0.1-8.8,0.2-13.2-0.1
			c-7.4-0.5-12.7-5.8-12.5-12.4c0.2-7,5.5-12.7,13.1-12.4c4.6,0.2,9.2,0.1,13.9,0c1.4,0,2.8-0.7,4.2-1c0-0.6-0.1-1.2-0.1-1.8
			c-1.7-0.3-3.4-0.7-5.1-0.7c-4.8-0.1-9.7,0-14.5-0.1c-5.2-0.1-8.7-3-10.6-7.6c-3.3-8.1,2-16.3,11.2-17c5-0.4,10.1-0.1,15.1-0.2
			c1.2,0,2.5-0.6,3.7-0.9c0-0.4,0-0.9,0-1.3c-1.5-0.3-3-0.7-4.5-0.8c-4.8-0.1-9.7,0.1-14.5-0.1c-6.9-0.4-12-5.7-12.1-12.2
			c-0.1-6.8,5.2-12.3,12.3-12.6c3.8-0.2,7.6,0,11.4-0.1c2.4,0,4.9-0.1,7.2-0.2c1.4-10.7,0.9-100-0.7-104.8c-4.9,0-9.9,0.3-14.9-0.1
			c-12.8-1-19,4.6-19,18.5c0.3,94.2,0.2,188.3,0.2,282.5c0,1.9-0.1,3.8,0.1,5.7c0.4,6.4,4.3,11.8,10.6,12.3
			c7.8,0.7,15.8,0.2,23.6,0.2c1.4-8.1,1.1-99.8-0.3-104.2C1106.9,1658.5,1106.7,1658.3,1106.5,1658.3z"/>
		<path class="st0" d="M1138.1,1309.7c3.1-2.6,4-5.3,4-9.2c-0.2-20.8,0.1-41.6-0.1-62.4c-0.2-20-9.8-34.3-27.6-43
			c-4.2-2.1-9-3.1-14-4.8c-1.3,11.4-0.9,172.4,0.4,177.4c7.8,0,15.6,0,24.2,0c0.1-3.7,0.2-7,0.2-10.2c0-6.5-0.2-13-0.1-19.5
			C1125.2,1326.6,1129.4,1317,1138.1,1309.7z"/>
		<path class="st0" d="M1130.3,1376.7c-4.4-0.7-9-1.2-13.4,0.4c-1.1,9.7-0.7,53.3,0.5,57.9c5.3,0,10.7,0,16.6,0
			c0.2-1.8,0.3-2.8,0.3-3.9c0-15.7,0-31.4,0-47.1c0-1.3,0.3-2.8-0.3-3.7C1133.1,1378.9,1131.7,1376.9,1130.3,1376.7z"/>
		<path class="st0" d="M1099.1,1376.2c-7.5,0.1-8.9,1.4-8.9,8.8c-0.1,14.9,0,29.8,0,44.6c0,1.8,0.3,3.6,0.5,5.5c6,0,11.4,0,17.1,0
			c1.2-12.4,0.7-53.7-0.8-58.8C1104.5,1376.2,1101.8,1376.1,1099.1,1376.2z"/>
		<path class="st0" d="M1088.9,1613.3c-2.3,0.4-3.9,1.8-3.8,4.3c0.2,2.4,1.8,3.7,4.1,4c1.2,0.2,2.5,0.1,3.8,0.1c6.1,0,12.2,0,18.3,0
			l0,0c5,0,10.1,0,15.1,0c2.5,0,5.1,0.1,7.5-0.1c2.3-0.2,4-1.6,4.1-4c0.1-2.5-1.5-3.8-3.8-4.2c-1.4-0.3-2.9-0.2-4.4-0.3
			c-12.2,0-24.3,0-36.5,0C1091.9,1613,1090.4,1613,1088.9,1613.3z"/>
		<path class="st0" d="M1138.1,1588.9c-0.2-2.7-2.5-4-7.4-4c-12.8,0-25.6,0-38.4,0c-1.3,0-2.8-0.3-3.7,0.3c-1.4,1-3.2,2.6-3.2,4
			c0,1.3,1.8,3.1,3.2,3.9c1.4,0.7,3.3,0.4,4.9,0.4c6.1,0,12.2,0,18.2,0l0,0c6.3,0,12.6,0.1,18.9,0
			C1136,1593.4,1138.3,1591.9,1138.1,1588.9z"/>
		<path class="st0" d="M1092.7,1557c-5.6,0-7.8,1.3-7.6,4.3c0.2,2.8,2.3,4,7.3,4c12.8,0,25.6,0,38.3,0c1.5,0,3.2,0.2,4.3-0.4
			c1.3-0.7,2.9-2.5,2.7-3.6c-0.2-1.5-1.7-3.1-3.1-3.9c-1.1-0.7-2.9-0.3-4.3-0.3c-6.1,0-12.2,0-18.2,0l0,0
			C1105.7,1557,1099.2,1557,1092.7,1557z"/>
		<path class="st0" d="M1138.1,1645.6c0.1-2.7-2-4.1-6.4-4.3c-0.4,0-0.8,0-1.3,0c-12.6,0-25.2,0-37.7,0c-1.5,0-3.2-0.3-4.3,0.4
			c-1.4,0.9-2.9,2.6-3,4.1c-0.1,1.1,1.6,2.8,2.8,3.5c1.2,0.6,2.9,0.4,4.3,0.4c6.3,0,12.6,0,18.9,0l0,0c6.7,0,13.4,0.1,20.1,0
			C1136,1649.7,1138,1648.3,1138.1,1645.6z"/>
		<path class="st0" d="M984.1,1311.3c-2.4,4.2-4.9,8.4-7.4,12.8c2.3,1.6,4,2.8,5.8,3.9c6.5,4.4,12.4,9.4,17.2,15.6
			c13.3,17.3,14.2,41.4,2.2,59.6c-14.4,21.9-38.2,30.8-63.2,22.2c-13.9-4.8-26.6-12.4-37.9-21.9c-23.3-19.6-24.8-54.2-3.8-76.3
			c13.8-14.5,30.8-18.8,50.1-15c5.3,1,10.5,2.8,16,4.3c2.4-4.7,4.7-9.2,5.2-14.4c-31.4-14.2-64.8-9.1-86.5,16.2
			c-10.5,12.2-16.3,26.5-17.1,42.5c-1.2,21.6,6.2,40.3,21.2,56c-0.8,0.7-1.2,1.2-1.8,1.5c-11.1,4.8-20,12.6-26.9,22.2
			c-6.5,9-12.5,18.4-17.9,28.1c-6.6,11.7-12.2,23.9-18.5,35.8c-33.9,64.1-67.8,128.1-101.8,192.1c-1.1,2.2-2.2,4.4-3.4,6.9
			c7.6,3.8,14.3,8,21.8,11.1c1.3-2.4,2.4-4.2,3.4-6.1c34.6-67.7,69.2-135.4,103.8-203.1c7.1-13.8,14.1-27.7,21.4-41.4
			c4.6-8.6,10.3-16.3,18.3-22.1c7.9-5.7,16.5-7.7,26.2-6.1c4.3,0.7,7.3,2.6,10.1,5.6c8.3,9.1,9.2,19.9,7.6,31.3
			c-1.6,11.2-6.6,21.2-11.2,31.3c-36.3,79.5-72.5,159-108.7,238.5c-0.7,1.4-1,3-1.7,4.9c7.6,3.3,14.8,6.4,22.1,9.6
			c1.3-2.7,2.2-4.5,3.1-6.4c5.7-12.9,11.2-25.8,16.9-38.7c29.5-66.9,59-133.7,88.4-200.6c2.9-6.5,5.5-13.2,7.7-20
			c4.5-13.6,6.2-27.4,2.3-41.5c-0.2-0.7,0.1-1.5,0.1-2.3c45.5,2.8,75.1-28.6,80.1-62.3C1031.3,1355.5,1011.1,1319.8,984.1,1311.3z
			 M918.7,1435.6c-4.2,0-7.6-3.4-7.6-7.6s3.4-7.6,7.6-7.6c4.2,0,7.6,3.4,7.6,7.6S922.9,1435.6,918.7,1435.6z"/>
	</g>
</g>
</svg>
