<?xml version="1.0" encoding="iso-8859-1"?>
<!-- Generator: Adobe Illustrator 25.0.0, SVG Export Plug-In . SVG Version: 6.00 Build 0)  -->
<svg version="1.1" id="Layer_1" xmlns="http://www.w3.org/2000/svg" xmlns:xlink="http://www.w3.org/1999/xlink" x="0px" y="0px"
	 viewBox="0 0 2000 2000" style="enable-background:new 0 0 2000 2000;" xml:space="preserve">
<style type="text/css">
	.st0{fill:#FFFFFF;}
</style>
<g id="Hematology">
	<g>
		<path class="st0" d="M1679.5,1058.4c0,128.1,0,256.3,0,384.4c0,23,0.4,46,0.8,69c0.1,6,0.9,12,1.6,17.9
			c1.3,11.9,3.1,23.8,4.1,35.8c1.3,15.9-2,30.6-12.9,43c-4.8,5.5-9.4,11.2-15.4,15.5c-9.1,6.5-19.1,10.7-30.5,10.9
			c-10.8,0.2-21.7,0.7-32.5,0.7c-116.5,0-233-0.1-349.5-0.1c-1.2,0-2.4,0.1-3.5,0c-4.1-0.4-7,1.3-8.9,5c-2,3.9-5.1,6.9-8.9,9.2
			c-4.4,2.6-9.2,3.8-14.2,3.9c-3.4,0.1-6.8,0-10.2,0c-174.9,0-349.8,0-524.7,0.1c-8.9,0-17.8,0.2-26.5-1.6c-4.2-0.9-8.4-2-12.3-3.7
			c-13.9-5.9-25.6-15-35.5-26.4c-2.9-3.4-3-3.4-7.1-1.3c-6.2,3.1-12.5,6-18.6,9.2c-11.1,5.9-23,9.2-35.3,11
			c-13.2,1.9-26.5,2.7-39.8,1c-49.5-6.2-87.7-29.6-111.8-74.1c-9.5-17.5-15.1-36.1-16.5-55.9c-0.8-10.9-0.9-21.9-0.9-32.9
			c-0.1-69.4-0.2-138.7-0.2-208.1c0-89.2,0.2-178.4,0.2-267.6c0-26.9-0.1-53.8-0.2-80.7c0-0.8,0-1.6,0-2.4c-0.1-1.8-1-3-3-2.8
			c-6.3,0.6-11.7-2-17-5c-8-4.5-14.5-10.6-19.4-18.4c-4.1-6.5-6.6-13.6-6.7-21.4c0-0.9,0-1.9-0.2-2.7c-1.8-7.9-1.4-15.8-1.4-23.8
			c0-12.4,0-24.8-0.1-37.2c-0.1-10.5,2-20.5,6.9-29.8c10.1-19.3,26.1-29.5,47.9-29.6c37.6-0.2,75.2,0.1,112.9,0.1
			c32.9,0,65.8-0.1,98.7-0.1c4.1,0,4.3-0.2,4.3-4.6c0-26,0.1-52,0.1-78c0-83.1-0.1-166.1-0.1-249.2c0-8.4,0.2-16.7,0.5-25.1
			c0.6-17,8.6-30.4,21.2-41.3c11.1-9.7,24-15.1,38.9-15.3c12.4-0.1,24.8-0.3,37.2-0.3c140.4-0.1,280.8-0.2,421.2-0.2
			c98,0,195.9,0.1,293.9,0.1c7.7,0,15.4,0.1,23,2c5.4,1.4,10.5,3.4,14.7,7.1c6.2,5.4,12.4,10.8,18.2,16.6
			c49.3,49.9,98.5,99.9,147.7,149.9c18.9,19.2,37.5,38.6,56.5,57.7c7.5,7.5,11.3,16.5,12.4,26.8c0.5,4.9,0.8,9.9,0.8,14.9
			c0.1,25.6,0.1,51.2,0.1,76.8C1679.5,811.1,1679.5,934.8,1679.5,1058.4C1679.4,1058.4,1679.4,1058.4,1679.5,1058.4z M660.9,921.6
			c-0.1,9.4-0.4,18.6-0.4,27.7c0,85,0.1,170.1,0.1,255.1c0.1,92.3,0.2,184.7,0.2,277c0,11.5-0.1,23-0.5,34.5
			c-0.3,8.4-1.3,16.7-3.9,24.7c-5.4,16.6-13.7,31.6-24.9,44.9c-0.5,0.6-1,1.2-1.5,1.8c-2,2.6-1.9,4.1,0.4,6.5c0.6,0.7,1.3,1.3,2,1.9
			c14,13,30.6,18.8,49.6,18.8c136.8-0.1,273.5-0.1,410.3,0c20.2,0,40.5,0.5,60.7,0.7c3.1,0,6.3,0,9.4-0.2c2.4-0.2,4.7-0.8,7.7-1.3
			c-1.3-1.7-2.3-2.8-3.1-3.9c-12.8-16.7-15.9-35-7.6-54.5c3.6-8.5,7.9-16.8,12.6-24.7c48.5-82,97.2-164,145.9-245.9
			c17.7-29.7,35.4-59.5,53.3-89.1c3.8-6.3,8.3-12.4,13-18.1c6-7.3,13.6-12.5,22.6-15.5c11.7-4,22.5-2.3,32.1,5.3
			c4,3.1,7.6,6.8,10.9,10.6c10.2,11.4,18.7,24.2,26.6,37.2c40.8,66.9,81.5,133.8,122.3,200.7c12,19.6,24.1,39.1,36.2,58.7
			c0.8,1.2,1.8,2.3,2.7,3.6c2.1-1.6,1.5-3.5,1.5-5c0-284.8,0-569.5,0-854.3c0-5.4,0-5.4-5.4-5.4c-37.9,0.2-75.8,0.4-113.6,0.5
			c-12,0-24-0.2-36-0.5c-6.8-0.2-13.6-1.2-19.9-3.8c-25.4-10.3-41.8-28.7-49.7-54.9c-2.5-8.2-3.1-16.6-3.1-25.2
			c0-47.9-0.1-95.9-0.1-143.8c0-6.4-0.5-6.9-6.9-6.9c-78.6-0.1-157.3-0.2-235.9-0.3c-94,0-188.1,0-282.1,0
			c-71.7,0-143.4,0.2-215.1,0.3c-4.7,0-9.4-0.1-14.1,0.2c-12.3,0.7-19.9,7.4-21.8,19.5c-0.9,6.2-1.3,12.5-1.3,18.7
			c0.1,102.1,0.4,204.3,0.6,306.4c0,7.1,0,14.1,0.1,21.2c0,3.8,0.8,4.5,4.6,4.6c3.4,0.1,6.8,0.2,10.2,0c10.6-0.8,20.8,1,30.7,4.7
			c2.4,0.9,5.1,1.5,7.3,2.8c12.7,7.9,21.3,18.8,24,33.7c1,5.5,1.4,11.1,1.5,16.7c0.2,18.7,0.1,37.4,0.1,56c0,3.6-0.2,7.3-0.8,10.9
			c-2.8,16.7-11.5,29.2-26.7,36.8c-2.9,1.5-5.9,2.7-8.9,4C671.5,917.3,666.4,919.3,660.9,921.6z M1419,1594.6
			c61.1,0,122.3,0,183.4,0c6,0,12-0.1,18,0c4.3,0.1,7.9-1,11.2-3.7c2.3-1.9,4.7-3.8,7.3-5.3c4.1-2.3,5.3-5.9,5.1-10.2
			c-0.1-2.1-0.3-4.2-0.7-6.2c-1.3-6.4-4.8-11.8-8.4-17.1c-4-5.9-8.3-11.7-12-17.9c-53.1-87.4-106.1-174.8-159.3-262.1
			c-11.4-18.7-23.5-37-35.4-55.4c-1.9-3-4.2-5.7-6.5-8.4c-3.6-4.2-6.7-3.9-9.6,0.7c-1.5,2.4-3,4.9-4.5,7.3
			c-17.9,28.9-36.2,57.4-53.5,86.6c-38.2,64.3-75.8,129-113.8,193.5c-13,22-25.8,44.2-40.4,65.3c-2.4,3.5-3.7,7.4-4.5,11.6
			c-1.5,8.2,1.5,14.4,8.9,18.1c4.6,2.4,9.6,3.2,14.8,3.2C1285.8,1594.6,1352.4,1594.6,1419,1594.6z M619.8,1147.7
			c-2-0.1-3.7-0.3-5.3-0.3c-29.1,0-58.2,0-87.4,0c-37.3,0-74.7,0-112,0c-4.4,0-4.4,0-4.4,4.3c0,0.3,0,0.5,0,0.8
			c0,114.3,0,228.5,0.1,342.8c0,7.3,0.7,14.6,2.1,21.8c8.8,46.7,48.3,81.8,94.5,84.9c28.5,1.9,53.8-6,75.4-24.7
			c25-21.6,37.1-49.3,37.1-82.2c0-114.3,0-228.5,0-342.8C619.8,1150.9,619.8,1149.5,619.8,1147.7z M515.1,917.3
			c-32.8,0-65.6,0-98.3,0c-6.2,0-6.2,0-6.2,6.4c0,58.2,0,116.5,0,174.7c0,6.5,0,6.5,6.5,6.5c65.4,0,130.8,0,196.3,0
			c1,0,2.1,0.1,3.1,0c2.3-0.2,3-0.8,3.2-3.1c0.1-0.9,0-1.8,0-2.7c0-58.6,0-117.3,0-175.9c0-5.9,0-5.9-5.9-5.9
			C581,917.3,548.1,917.3,515.1,917.3z M517.5,874.5c44.8,0,89.6,0,134.4,0c2.1,0,4.2,0,6.2-0.5c7.9-1.8,13-8.3,13.1-16.8
			c0.1-7.4,0-14.9,0-22.3c0-8.6,0.1-17.2,0-25.9c-0.1-9.1-5.8-16-14.4-17.4c-1.5-0.3-3.1-0.2-4.7-0.2c-89.7,0-179.4,0-269.1,0
			c-1,0-2.1,0-3.1,0c-8.7,0.7-15.6,7.5-15.7,16.1c-0.2,17-0.1,34,0,50.9c0.1,7,4.9,13.1,11.6,15.1c2.3,0.7,4.9,0.8,7.3,0.8
			C427.9,874.5,472.7,874.5,517.5,874.5z M1452.6,411.8c0,1.3,0,2,0,2.8c0.3,6.8,0.8,13.6,0.8,20.3c0.1,23.9,0.1,47.8,0.1,71.7
			c0,7.7-0.1,15.4,0.2,23.1c0.3,6.9,0.9,13.9,4.3,20.1c5.2,9.3,12.6,16.2,22.6,20.3c2,0.8,4.3,1.3,6.4,1.3
			c39.8,0.1,79.7,0.1,119.5,0c1,0,1.9-0.3,3-0.4C1607.1,567.3,1455.8,413.6,1452.6,411.8z"/>
		<path class="st0" d="M833.2,880.2c-0.2-30,4.5-51.9,11.8-73.3c7.4-21.8,17.8-42.3,28.3-62.7c26.9-52.2,58.4-101.6,91.1-150.3
			c12.5-18.6,24.8-37.5,38.9-55c2.1-2.6,4.4-5.2,7-7.4c9.6-8,21.9-8.1,31.6-0.2c2.9,2.4,5.6,5.2,7.8,8.2
			c8.7,11.4,17.4,22.9,25.6,34.6c25.8,36.7,51.1,73.9,74.4,112.3c17.5,28.9,34,58.4,48.8,88.9c9.4,19.4,17.1,39.6,21,60.9
			c10.4,55.6-0.7,106.2-37.1,150.2c-27.3,33-61.5,56.3-103.3,66.5c-72.9,17.8-137,0.4-191.4-51.4c-24.3-23.1-40.8-51-49-83.7
			C835.1,903,833.3,888,833.2,880.2z M875,871.7c-0.1,22.4,4.8,43.1,14.6,62.5c12.9,25.7,32.3,45.3,56.5,60.5
			c34.9,21.9,72.7,29.1,113,20.9c36.5-7.4,66.7-26.3,90.4-54.8c27.5-33.1,37.3-71.4,30.1-114c-2.9-17.1-8.9-33.2-16.3-48.9
			c-14.5-30.9-30.8-60.8-48.3-90c-26.4-43.9-55.6-86-85.3-127.6c-0.4-0.5-0.7-1.1-1.2-1.5c-1.4-1.3-2.8-1.4-4.1,0
			c-0.7,0.7-1.3,1.7-1.9,2.5c-5.1,7.4-10.3,14.8-15.3,22.3c-29.2,42.7-57.4,86-82.2,131.5c-13,23.8-25.4,48-36,73
			C880.3,828.6,874.8,849.8,875,871.7z"/>
		<path class="st0" d="M1046.8,1199.8c-77.6,0-155.2,0-232.8,0c-2.8,0-5.8-0.1-8.5-0.9c-9.3-2.7-14.9-11.7-14.1-21.8
			c0.8-9.6,8-17.1,17.5-18.3c1.8-0.2,3.6-0.3,5.5-0.3c154.9,0,309.8,0,464.8,0c2.7,0,5.5,0.1,8.2,0.8c9.8,2.4,16,12.1,14.8,22.5
			c-1.2,10.3-9.2,17.7-19.4,18c-1.4,0-2.9,0-4.3,0C1201.2,1199.8,1124,1199.8,1046.8,1199.8z"/>
		<path class="st0" d="M986.5,1325c-57.1,0-114.2,0-171.2,0c-1.7,0-3.4,0.1-5.1-0.1c-11.4-1.3-19.1-10.3-18.8-21.7
			c0.3-10.8,8.6-19.3,19.7-20.1c1.3-0.1,2.6-0.1,3.9-0.1c114.3,0,228.6,0,342.9,0c3.1,0,6.3,0.3,9.3,1.2
			c9.5,2.9,15.4,12.4,14.1,22.2c-1.4,10.6-9.3,18-20,18.6c-1.3,0.1-2.6,0-3.9,0C1100.4,1325,1043.5,1325,986.5,1325z"/>
		<path class="st0" d="M950.7,1451.9c-44.4,0-88.8,0-133.2,0c-2.9,0-5.8,0.1-8.6-0.3c-9.5-1.3-16.2-8.1-17-17.7
			c-0.3-3.2,0-6.6,0.9-9.6c2.4-8.3,9.8-13.5,19-13.6c19.5-0.1,38.9-0.1,58.4-0.1c71.8-0.1,143.6-0.2,215.5-0.3c2,0,3.9,0,5.9,0.2
			c9.4,0.9,16.8,8.3,17.3,17.7c0.2,3,0.1,6.1-0.6,8.9c-2.2,8.6-9.7,14.2-18.8,14.2c-19.7,0.1-39.4,0.1-59.2,0.1c-26.5,0-53,0-79.5,0
			C950.7,1451.5,950.7,1451.7,950.7,1451.9z"/>
		<path class="st0" d="M1412.8,1020.7c-35.9,0-71.8,0-107.7,0c-1.6,0-3.1,0-4.7-0.1c-13.6-1.2-22.3-13.8-18.6-26.9
			c2.6-9.1,10.3-15,20.1-15c19.3,0,38.6,0,58,0c53.8,0.1,107.6,0.1,161.4,0.2c2.8,0,5.8,0.3,8.5,1.1c10,3,15.6,12.6,14.1,23.7
			c-1.3,9.7-10,17.3-20.2,17.3c-22.3,0.1-44.6,0-67,0c-14.6,0-29.2,0-43.9,0C1412.8,1020.8,1412.8,1020.8,1412.8,1020.7z"/>
		<path class="st0" d="M1413,899.5c-35.2,0-70.5,0-105.7,0c-2.3,0-4.7,0.1-7-0.2c-11.1-1.6-18.6-11.2-17.8-22.6
			c0.8-11.2,9.4-19.5,20.6-19.5c31.5-0.1,62.9-0.1,94.4-0.2c41.1-0.1,82.2-0.2,123.4-0.3c2.6,0,5.3,0.1,7.8,0.8
			c8.5,2.2,16.4,10.3,15.2,23c-0.9,9.7-8.9,17.8-18.8,18.4c-7.3,0.4-14.6,0.3-21.9,0.3c-30,0-60,0-90.1,0
			C1413,899.3,1413,899.4,1413,899.5z"/>
		<path class="st0" d="M1413,773c-35.9,0-71.8,0-107.7,0c-1.8,0-3.7,0-5.5-0.3c-9.4-1.2-16.5-8.8-17-18.1
			c-0.6-10.3,5.5-18.8,15.1-21c2-0.5,4.1-0.5,6.2-0.5c36.6-0.1,73.1-0.2,109.7-0.3c35.8-0.1,71.5-0.2,107.3-0.1
			c2.8,0,5.8,0.4,8.4,1.2c9.2,3.1,14.3,12.4,12.6,22.6c-1.5,8.9-9.4,15.9-18.7,16c-20,0.2-40,0.1-59.9,0.1c-16.8,0-33.7,0-50.5,0
			C1413,772.8,1413,772.9,1413,773z"/>
		<path class="st0" d="M1400.7,1393.3c0-22.1,0-44.1,0-66.2c0-1.8,0-3.7,0.3-5.5c0.9-4.8,3.3-8.4,8.1-10.1c3.7-1.3,7.5-2.2,11.5-2.2
			c10.5,0.1,17.8,6.7,18.9,17.1c0.2,1.9,0.2,3.9,0.2,5.9c0,42.8,0.1,85.7,0.1,128.5c0,7-2.8,12.7-7.8,17.3c-5.4,5-11.8,6.1-18.6,3.4
			c-7.2-2.9-12.5-7.6-12.7-16.2c-0.1-2.6-0.3-5.2-0.3-7.8c0-21.4,0-42.8,0-64.3C1400.5,1393.3,1400.6,1393.3,1400.7,1393.3z"/>
		<path class="st0" d="M1420.9,1513.7c12.7,0,22.8,8.4,24.5,20.8c0.9,6.4-1.1,12.2-5,17.2c-7.8,9.9-22.2,12.7-33.2,6.5
			c-13.9-7.9-16.1-26.3-4.4-37.3C1407.8,1516.1,1413.9,1513.8,1420.9,1513.7z"/>
		<path class="st0" d="M476.2,1435.8c0,20.5,0.1,41-0.1,61.5c0,2.8-0.4,5.8-1.4,8.4c-3.1,8.5-11.9,13.3-21.1,11.9
			c-9.3-1.4-15.9-8.6-16.4-18.2c-0.2-3.1-0.1-6.3-0.1-9.4c-0.1-38.5-0.2-77-0.3-115.5c0-2.2,0-4.5,0.5-6.6
			c2.3-9.4,11.1-15.3,21.1-14.1c9.9,1.1,17,8.4,17,18.2c0.2,21.3,0.1,42.6,0.1,63.8C475.9,1435.8,476.1,1435.8,476.2,1435.8z"/>
		<path class="st0" d="M1025.1,974.8c-20.1-1.5-40.3-7.5-58.5-19.6c-28.4-18.8-45.8-45.2-53-78.4c-1-4.9-1.9-9.7-0.8-14.7
			c1.1-4.9,3.2-9.1,6.8-12.6c10-9.7,27.1-5.1,30.9,8.3c1.4,5,2.5,10.1,3.7,15.2c8,32.6,37.2,57.9,70.7,61.1c3.8,0.4,7.5,1,11.2,1.7
			c13.7,2.6,19.7,19.3,10.9,30.1C1042.3,971.9,1035.1,975,1025.1,974.8z"/>
	</g>
</g>
</svg>
