<?xml version="1.0" encoding="iso-8859-1"?>
<!-- Generator: Adobe Illustrator 25.0.0, SVG Export Plug-In . SVG Version: 6.00 Build 0)  -->
<svg version="1.1" id="Layer_1" xmlns="http://www.w3.org/2000/svg" xmlns:xlink="http://www.w3.org/1999/xlink" x="0px" y="0px"
	 viewBox="0 0 2000 2000" style="enable-background:new 0 0 2000 2000;" xml:space="preserve">
<style type="text/css">
	.st0{fill:#FFFFFF;}
</style>
<g id="Immunology__x26__Rheumatology">
	<g>
		<path class="st0" d="M432.2,267.3c9-18.1,32.6-27.2,51.3-19.3c16.1,6,27.3,23,26.4,40.1c-2.3,69.8,14.2,141.1,51.8,200.4
			c34.5,55.7,87.7,96.8,144.5,128.1c-27,16.2-55.3,30.3-82,47c-43-27-81.3-61.6-112.1-102c-55-72.7-84.5-163.8-84.4-254.8
			C428,293.6,425.3,279.4,432.2,267.3z"/>
		<path class="st0" d="M952.8,290.5c-1.7-20.5,13.4-40.8,33.8-44.4c22.2-4.8,45.9,12.4,48.4,35c3.6,86.8-17.6,175.3-63.6,249.3
			c-23,36.8-51.8,70-85.3,97.6c-39.7,33-85.5,57.4-130.3,82.4c-28.8,16.4-57.9,32.5-85.7,50.6c-40.1,26.5-76.8,58.7-104.9,97.8
			c-52.1,71.7-69,167.8-43.8,252.8c11.4,40.9,32.1,79,59.7,111.3c35.1,41.3,78.9,74.4,125.3,102.1c-27.3,14.4-54.8,28.5-81,44.7
			c-66.8-44.1-125.6-103.3-159.8-176.4c-43.1-88.9-48.7-194.8-15.8-287.9c25.9-73.9,75.3-138.7,137.6-185.9
			c43.8-34.5,93.6-60,141.8-87.5c30.2-17.9,61.1-34.8,89.3-55.7c33.7-25.4,63.2-56.7,85.1-92.8C938.6,425.8,955.1,357.7,952.8,290.5
			z"/>
		<path class="st0" d="M541.1,369.1c126.8-0.1,253.5-0.2,380.3,0c-2.4,11.1-5.3,22.1-8.2,33.1c-121.2,0-242.3,0.1-363.5,0.1
			C546.3,391.4,543.7,380.2,541.1,369.1z"/>
		<path class="st0" d="M772.6,471.7c6.5-11.4,18.1-20.3,31.6-20.8c14.7-1.3,28.4,8,35.2,20.6c13.9-0.1,27.9,0,41.8,0
			c-6.7,11.4-14.4,22.2-22.9,32.4c-6.4,0-12.9,0-19.3-0.1c-8.4,14.9-27.3,23.9-43.9,17.9c-9.6-2.4-16.2-10.2-22.1-17.4
			c-56.2-0.2-112.5,0-168.8-0.1c-8.5-10.5-16.7-21.3-23.8-32.8C644.5,471.7,708.6,471.2,772.6,471.7z"/>
		<path class="st0" d="M672.6,566.3c38.6,0.1,77.3,0.9,115.9,0.6c-15.8,10.4-32.1,20.1-48.3,30c-5.9,3.7-13.4,2.1-19.4-0.6
			C704.6,586.6,688.5,576.6,672.6,566.3z"/>
		<path class="st0" d="M753.7,739.6c27.8-15.3,55.9-30.3,82.8-47.1c26.8,18.4,52.9,38.2,75.7,61.5c-25.5,12.7-49.4,28.7-70.3,48.1
			C815.2,777.6,785,757.5,753.7,739.6z"/>
		<path class="st0" d="M894.1,792.5c75.3-49,173-62.6,258.5-34.2c74.5,23.8,138.2,78.8,172.3,149.2c41.1,83.1,40.9,185.3-0.9,268.1
			c-11.1,22.7-25.5,43.6-41.9,62.8c13.3,12.9,25.6,26.8,38.8,39.8c16.2-5.8,35.5-2.5,48.9,8.2c8.2,7.3,15.2,15.8,23,23.6
			c50.1,53.6,100.4,107.2,150.9,160.4c11.9,13.3,26.4,25.1,33.1,42.1c9.3,22.1,5.4,49-10,67.4c-18.6,23.9-54,32.9-81.3,19.3
			c-14.8-6.2-24.3-19.5-35.3-30.3c-56-58.8-111.6-117.8-167.6-176.6c-7.2-7-14.7-14.4-17.9-24.2c-5-12.5-3.5-26.8,2.6-38.6
			c-13.1-14.2-26.2-28.2-39.5-42.3c-80.4,56.3-189.5,67.4-280,30c-73.6-29.2-133.5-89.9-162.9-163.2c-34.6-82.7-28.9-181,15-259.1
			C822.1,853.7,855.2,818.6,894.1,792.5 M1020.5,812.2c-43.5,7.5-84.7,27.5-117.4,57.2c-37.8,33.6-63.6,80.3-71.9,130.2
			c-6.1,37.4-4,76.3,7.9,112.4c13.9,44,41.5,83.7,77.8,112.3c34.6,27.8,77.6,44.6,121.7,48.8c46.9,4.8,95.2-5.7,136.1-29.1
			c37.8-22,69-55,89.2-93.7c38.6-73.4,35.1-167.2-10.5-236.7c-22.3-34.3-53.9-62.5-90.6-80.8C1119.1,810.9,1068.4,804,1020.5,812.2z
			"/>
		<path class="st0" d="M647.1,808.3c14.9-11.8,30.3-23.3,46.8-32.6c23.4-0.4,46.8-0.2,70.2-0.3c16.9,9.1,31.7,21.5,47.2,32.8
			C756.6,808.2,701.9,808.2,647.1,808.3z"/>
		<path class="st0" d="M1064.3,847.8c3.5-1.6,7.5-1.2,11.2-1c35.3,2.7,69.9,15,98.5,35.9c43.7,31.6,72.6,82.2,77.7,135.9
			c0,8.7-8.3,16.3-17,15.6c-7.7-0.1-14.2-6.8-14.6-14.4c-3.9-38.6-23-75.5-52.1-101.1c-26.4-24-61.4-38.2-97-40
			c-5.2-0.1-10.4-2.2-13.3-6.7C1051.6,864.3,1055.3,851.6,1064.3,847.8z"/>
		<path class="st0" d="M590.8,866.5c61,0.1,122,0,182.9,0.1c4.8,0,9.6-0.3,14.5-0.6c-6.8,10.9-13,22.1-18.9,33.5
			c-66.9,0.2-133.8,0-200.6,0.1C575.8,888.5,582.9,877.2,590.8,866.5z"/>
		<path class="st0" d="M536.2,996.6c2.2-10.9,4.3-21.9,6.9-32.7c67.9,0,135.9-0.2,203.9,0.1c-3.3,10.7-5,21.8-6.6,32.9
			C672.4,996.7,604.3,997.5,536.2,996.6z"/>
		<path class="st0" d="M537.1,1068.2c67.3-0.2,134.6,0,201.9-0.2c0.7,11.1,2.2,22.1,4.4,33c-66.2,0.1-132.4-0.2-198.5,0.2
			C541.6,1090.3,539,1079.3,537.1,1068.2z"/>
		<path class="st0" d="M635.4,1167.7c6.3-10.8,17.7-18.7,30.3-19.6c14.4-1.3,28.9,6.9,35.5,19.7c21,0,41.9,0,62.9,0.2
			c4.7,11.2,10.3,22,16.4,32.5c-26.4,0.3-52.8-0.1-79.2,0.3c-8,16.4-29.2,24.8-46.1,17.7c-8.6-3.2-15.4-10-20.1-17.8
			c-13.3-0.2-26.6-0.2-39.8,0c-8.4-10.6-15.8-21.8-23.3-33.1C593.1,1168.1,614.2,1167.6,635.4,1167.7z"/>
		<path class="st0" d="M663.5,1266.5c18,1,36,0,54.1,0.4c26.6-0.3,53.3,0.9,79.9-0.5c-14.5,11.1-29.6,21.3-44.8,31.2
			c-4.8,3.5-11.1,1.2-16.6,1.8c-8.4-0.3-17.3,1.9-25.3-1C694.8,1287.9,678.5,1278.2,663.5,1266.5z"/>
		<path class="st0" d="M627.5,1396.8c68.8-41.4,143.8-73.9,204.4-127.6c19.1,20.1,41.3,37.1,65.2,51.2
			c-30.1,28.2-63.4,52.9-99.1,73.6c-42.2,24.5-85.2,47.5-127.2,72.3c-36.2,21.5-70.1,47.6-97,80.2c-37,44.3-61.3,100.1-63.9,158.1
			c-0.9,20.9-19.7,38.9-40.6,39c-22.4,1-43-19-42.3-41.5c5-86.8,44.8-169.9,105.2-231.9C560.1,1441.2,593,1417.4,627.5,1396.8z"/>
		<path class="st0" d="M754.6,1446.7c28.5-14.8,56-31.7,83.4-48.2c64,38.7,120,92.5,155.4,158.9c23.3,44,38.8,92.6,42.1,142.5
			c1.9,21.3-15.5,41.9-36.8,43.7c-18.2,2.3-36.9-9.4-43.2-26.6c-3.7-9-2.7-19-4.2-28.4c-5.9-42.2-21.8-83-46-118.1
			c-22.1-32.6-50.8-60.4-83-82.9C800.8,1472.1,777.6,1459.6,754.6,1446.7z"/>
		<path class="st0" d="M641,1515.7c13.6-1.3,27.5-0.5,41.2-0.6c44.7-0.1,89.4,0.1,134.1-0.3c14.3,9.3,27.3,21.1,39.2,33.4
			c-83.5-0.5-167,0.1-250.5-0.2C616.3,1536.5,628.3,1525.6,641,1515.7z"/>
		<path class="st0" d="M556.3,1618.7c116-0.1,232.1,0,348.1-0.1c4.8,10.8,9.4,21.7,13.2,32.9c-124.5,0-249.1,0.1-373.6-0.1
			C547.3,1640.3,551.5,1629.4,556.3,1618.7z"/>
	</g>
</g>
</svg>
