<?xml version="1.0" encoding="iso-8859-1"?>
<!-- Generator: Adobe Illustrator 25.0.0, SVG Export Plug-In . SVG Version: 6.00 Build 0)  -->
<svg version="1.1" id="Layer_1" xmlns="http://www.w3.org/2000/svg" xmlns:xlink="http://www.w3.org/1999/xlink" x="0px" y="0px"
	 viewBox="0 0 2000 2000" style="enable-background:new 0 0 2000 2000;" xml:space="preserve">
<style type="text/css">
	.st0{fill:#FFFFFF;}
	.st1{fill-rule:evenodd;clip-rule:evenodd;fill:#FFFFFF;}
</style>
<g id="Internal_Medicine__x26__Cardiology">
	<g>
		<path class="st0" d="M787,1049.4c-13.5,3.9-27.6-3.9-31.6-17.4c-3.9-13.5,3.9-27.6,17.4-31.6c12.7-3.7,26.6-6.2,41.2-7.7
			c15.2-1.6,31.5-2.1,48-1.9c3.4,0.1,6.6-1.3,9-3.5c2.3-2.2,3.9-5.2,4.1-8.6c3.9-74.2-4-135.2-21.9-185.5c1.4-28.5,6.7-56.7,17-83
			c41.5,67.6,62,155.3,55.9,271.1c-0.9,17.2-8.5,32.5-20.2,43.4s-27.4,17.4-44.6,17.1c-14.2-0.2-28.5,0.3-42,1.7
			C807.4,1044.7,796.4,1046.6,787,1049.4L787,1049.4z M580.5,575.9c-35.4-10.3-73.1-19.1-112.8-26.8c-13.8-2.7-22.9-16-20.3-29.9
			c2.6-13.8,16-22.9,29.9-20.3c44.1,8.6,86.1,18.4,125.5,30.3C594.5,544.3,587.1,559.9,580.5,575.9L580.5,575.9z M1601.6,649.3
			c13.5,4.2,21,18.5,16.8,32s-18.5,21-32,16.8c-93.5-29.1-182.9-42.7-271.8-35.6c-88.6,7.1-177.1,34.8-269.2,88.3
			c-12.2,7.1-27.8,2.9-34.9-9.3c-0.5-0.8-0.9-1.7-1.3-2.5l0,0c-18-40.8-42-78.1-71.2-111.6c22.9-12.1,48.1-14.2,68.4,4.2
			c14,19.5,26.5,40,37.5,61.5c90.5-48.8,178.4-74.6,266.6-81.6C1406.3,603.9,1502,618.4,1601.6,649.3L1601.6,649.3z M653,455.9
			c-36.6-10.4-74.9-18.3-114.3-23.5c-14-1.8-23.8-14.6-22-28.6s14.6-23.8,28.6-22c51.6,6.8,101.3,17.9,148.3,33
			C679,427.6,665.5,441.3,653,455.9L653,455.9z M1589.2,773.8c13.5,4.2,21,18.5,16.8,32s-18.5,21-32,16.8
			c-93.1-29-178.4-38.2-258.8-27.3c-75.7,10.3-147.7,38.5-218.4,85.2c1.8,22.2,2.4,45,1.6,68.4c-1,28.9-4.1,58.3-9.3,88.2
			c-1.3,7.2,2.2,11.5,8.3,14.4c16.4,8,32.5,16.5,48.5,25.9c16.5,9.7,38.4,25.1,54.6,36.3c27.6,19-0.3,59.4-27.9,40.4
			c-5-3.4-16.8-10.3-21.7-13.5c10.2,39.5,8.8,80.9,2.2,120.8c-4.3,26.3-11.1,53.1-19.6,80c-2.3,29.9,4.1,56.2,10.5,82.6
			c9.3,38.3,18.6,76.8,7.8,128.4c-2.9,13.8-16.4,22.6-30.2,19.8c-13.8-2.9-22.6-16.4-19.8-30.2c8.1-38.6,1.2-70.2-6.3-101.5
			c-21.9,50-46.4,97.6-67.6,138.9l-6.8,13.2c-6.4,12.5-21.7,17.5-34.3,11.1c-12.5-6.4-17.5-21.7-11.1-34.3l6.8-13.2
			c31.5-61.3,70.6-137.5,96.5-212.5c-2.9,2.3-5.8,4.7-8.8,7c-52.8,40.5-121.9,75.3-174.6,92.1c-13.4,4.2-27.7-3.2-32-16.6
			c-4.2-13.4,3.2-27.7,16.6-32c47.7-15.2,110.5-47,159-84.1c24.4-18.7,44.6-38.2,56.3-56.6c16.7-26.3,13.8-61.9,7.9-91.1
			c-5.2-25.9-16.1-49-34.2-68.2c-23.1-13.5-35.2-39.6-30.6-66c4.9-28.2,7.8-55.3,8.7-81.3c0.9-26-0.1-51.5-2.9-76.5l0,0
			c-1-9,2.9-18.3,10.9-23.8c81.4-56.3,164.6-90.2,252.9-102.2C1396.4,732.7,1488.9,742.6,1589.2,773.8L1589.2,773.8z"/>
		<path class="st1" d="M619.2,925.9C565.4,726,638.2,459.9,853,400c30.3-51.5,38.4-127.8,27.8-223.6h149.9
			c14.1,63.8,14.1,146.9-18.6,209.3c52.5-54.6,95.9-115.6,127.1-185.1l167,35.1c-29.9,84.2-79.4,159.6-141.6,230.6
			c24.6,23.8,51.4,58.1,71.6,93.5l-167.8,63.9C976.1,451.5,737,617,798.8,899.4C819.1,992.2,635.9,988,619.2,925.9L619.2,925.9z"/>
		<path class="st0" d="M484.9,996.7c12.6-17,36.5-20.5,53.5-7.9s20.5,36.5,7.9,53.5c-40.2,54-49.5,117.9-37.1,180.1
			c14.4,72.5,57.8,142.7,116.2,193.6c88.1,76.8,296,324.9,388.1,320c13.3-0.7,27.8-4.6,42.9-11.2
			c143.2-62.3,260.8-277.4,252.8-430.2c-1.8-34-8.8-67-22.3-97.9c-5.3-12.1-0.9-2.4-2.3-5.4c-17.8-40.1-20.5-46.1,15.3-87
			c7.2-8.3,14-17.3,20.2-26.9c23.2-35.9,36-78.5,30.5-122.7c-3.8-30.6-16.5-62.4-40.8-94.1c4.6-0.8,9.2-1.5,13.8-2.1
			c24.5-3.3,49.1-4.4,73.6-3.6c16.3,30.1,25.7,60.6,29.5,90.5c7.9,63.3-9.9,123.3-42.2,173.3c-8,12.5-17.2,24.5-27.1,35.9
			c-3.7,4.2-3.6,4.4-3,5.8c2.9,6.5-0.9-2.4,2.6,5.7c17.3,39.7,26.3,81.7,28.6,124.6c9.7,184.7-125.8,429-298.6,504.2
			c-23.4,10.2-46.9,16.3-69.6,17.4c-141.1,7.4-327.5-238.7-442.3-338.9c-70.7-61.7-123.3-147.3-141.1-236.5
			c-8.5-42.6-9.1-86-0.1-128.2c-8.9-12.4-16.3-25.2-22.5-38.4c-29.5-62.9-27.7-130.6-5.6-193.1c21.3-60.2,61.6-115.7,110.3-156.8
			c9.6-8.1,19.6-15.7,30-22.7c-5.8,35.4-8.3,71.4-7.7,107.1c-26.4,28.5-47.8,62.3-60.4,97.9c-13.1,37-16.6,76-6,112.6
			C476,1009.1,480.3,1002.9,484.9,996.7L484.9,996.7z"/>
	</g>
</g>
</svg>
