<?xml version="1.0" encoding="iso-8859-1"?>
<!-- Generator: Adobe Illustrator 25.0.0, SVG Export Plug-In . SVG Version: 6.00 Build 0)  -->
<svg version="1.1" id="Layer_1" xmlns="http://www.w3.org/2000/svg" xmlns:xlink="http://www.w3.org/1999/xlink" x="0px" y="0px"
	 viewBox="0 0 2000 2000" style="enable-background:new 0 0 2000 2000;" xml:space="preserve">
<style type="text/css">
	.st0{fill-rule:evenodd;clip-rule:evenodd;fill:#FFFFFF;}
</style>
<g id="Neurology">
	<g>
		<path class="st0" d="M778.3,1042.5c16.6-14.5,19.2-24.7,17.5-46c-6.4-86.9,47.7-177.3,133-201.1c20.9-6,22.1-5.1,36.2-25.6
			c11.5-15.8,26.8-29,44.7-39.2c20.5-11.9,20.9-16.6,20.5-35.8c-2.1-41.7-27.3-78.4-69-88.2c-35-9-35.8-9-50.3-32.8
			c-34.1-55-148.8-47.7-190.1,0.9c-23.9,29.8-26.4,33.2-58.8,39.2c-57.1,11.9-102.3,64.8-96.3,124.4c1.7,17,5.5,18.7,30.6,17.9
			c85.7-2.1,170.5,105.7,120.2,184.5c-49.4,78.4-153,49.8-202.4-18.4c-12.3-17.1,13.2-35.8,25.6-18.8c35.4,48.6,112.9,78.9,150,19.7
			c37.1-58.9-37.9-144-100.5-134.7c-32,5.1-33.2,5.1-55-5.1c-76.7-36.2-158.1,35.8-136.8,114.2c6,23,4.7,23.9-3.4,58.9
			c-8.9,37.5,23.4,80.9,61,87.8c46,7.7,50.7,5.5,61.3,20.4c39.2,55.4,114.7,66.5,176.5,49C730.1,1103,750.6,1067.2,778.3,1042.5
			L778.3,1042.5z"/>
		<path class="st0" d="M1327.6,1453.4c-18.8-8.6-37.5-19.6-54.5-32.4c-20.1-14.9-27.3-17.9-60.1-13.6c-26,2.5-26,5.1-13.2,30.7
			c33.2,65.6,58,134.7,96.8,199.4c18.3,29.4,23.9,34.1,57.9,28.2c20.9-3.4,28.6-13.6,24.3-30.7c-13.2-57.1-21.3-96.3-24.3-140.6
			C1352.8,1466.1,1351.5,1464.4,1327.6,1453.4L1327.6,1453.4z"/>
		<path class="st0" d="M1308,1305.9c11.9-24.3,22.1-29.8,49.4-30.7c87-1.7,169.6-49.4,198.2-134.2c18.3-57.9,20-61.7,61.7-72
			c28.2-6.4,58.4-22.6,81-40c33.7-25.6,43.5-48.6,52.4-89.5c17.5-81.8,0.4-190.9-58.8-253.1c-19.2-19.6-27.3-35-36.2-69.9
			c-24.3-96.3-142.3-182.4-238.6-194.3c-53.3-6.8-59.7-8.5-87-29.8c-92.9-73.3-242.9-95.5-349.4-40.1
			c-45.2,23.9-52.9,27.3-87.8,15.3c-114.6-40.9-266.8,18.8-324.3,125.8c-26.9,49.4-28.6,52.4-80.5,60.5
			C385,568.8,315.5,634,315.9,741.8c0.9,42.6-2.1,46-25.6,82.7c-131.7,205.4,89.5,464.9,387,380.1c28.1-7.7,30.2-13.6,33.7-35.8
			c2.1-20.5,0-24.7-30.7-19.7c-66.9,12.4-139.3-3.4-184.1-57.9c-9-11.1-4.7-9.8-43-15.4c-57.6-7.7-104-69.9-89.9-127.9
			c7.2-29.8,6.8-29.8,3-43.9c-23.9-88.3,53.7-175.2,145.8-160.7c18.8,2.6,20.5,3.4,21.3-20c2.5-69.5,55.4-127.4,123.2-140.6
			c20.5-3.8,21.7-6.4,41.8-29.4c53.2-62.2,185.8-69.9,235.7-2.6c14,18.8,17.9,20.5,34.9,24.7c12.8,3.4,15.8,0.8,25.6-16.2
			c43-75.9,150.8-115.1,231.4-78.9c27.3,11.5,29,10.7,43.1,8.1c88.6-20.4,197.7,33.2,232.7,118.1c9.8,23.4,11.9,27.3,34.9,38
			c69.5,32.4,101.4,118.4,52,181.1c-14.5,18.4-15.3,20.9-13.6,39.7c6,69.9-66.5,111.6-129.6,108.2c-30.2-1.7-34.1-2.1-46.5,4.3
			c-57.5,28.9-144,30.6-195.6-12c-15.8-12.3-18.8-11-38-0.8c-54.1,28.1-163.2,41.3-206.7-8.5c-14-15.8,9.8-36.7,23.9-21.3
			c33.7,39.2,133.8,21.7,174.7-2.1c29.9-17.9,33.7-19.2,64.8,7.7c41.8,35.4,116.4,33.7,162.4,8.9c20-10.2,26-11.1,58.4-7.7
			c46,3.8,108.7-24.7,99.7-79.2c-3.8-24.3-3.8-29,16.6-52c43.9-47.8,14.5-115.9-41.3-139.8c-25.6-9.8-31.5-17.9-45.2-52
			c-29-70.7-124.4-116.3-198.2-99.7c-28.5,6.8-31.9,3.4-60.9-10.2c-66.1-29.8-157.7,4.2-192.2,67.3c-7.2,13.7-3.8,19.7,13.2,41.4
			c16.2,20.8,26.4,46.5,27.3,75.4c0.9,15.8,1.7,17.5,18.8,17.1c14.1-0.8,29,0.4,43,4.3c21.7,6.8,23.8,7.3,39.6-0.8
			c92.9-53.7,215.7-24.7,269.8,69.9c10.6,18.3-17.5,34.1-27.7,16.2c-45.2-79.3-148.8-103.1-226.8-58.8
			c-29.4,17.1-31.1,13.6-63.9,5.1c-42.6-12.8-98.4,6-123.6,42.6c-19.2,27.7-20.9,28.2-53.7,37.5c-83.5,23.4-129.5,121.4-103.5,201.1
			c10.2,31.9,31.1,57.5,60.1,75c26.9,17.1,28.6,22.2,39.2,51.6c21.3,59.2,92,75,147.9,55.8c37.9-13.6,38.4-12.8,78-6
			c36.7,6.8,81.8-3.4,113.4-23.8c31.5-21.3,38.4-23,70.8-21.3c51.5,3.4,113.4-40,104.8-95.9c-2.5-20.9,29-25.6,31.6-4.7
			c10.6,72.4-59.3,131.2-127.9,132.9c-36.7,0.8-46,5.1-64.3,17.1c-38,23.8-89.1,34.9-133,27.3c-29.4-5.1-34.5-5.1-65.2,4.7
			c-70.7,23.8-156,1.3-185-72c-8.5-22.1-10.2-26.9-30.7-40c-17.9-12-32.8-27.3-45.6-46c-16.6-24.3-20.9-23-34.5-9.8
			c-83.9,81.4-67.3,225.5,46.9,274c43.9,18.7,97.2,21.3,141.5,2.5c45.2-19.2,47.8-18.8,87.4,1.7c48.2,25.6,105.3,34.9,158.1,20.4
			C1263.7,1360.4,1291.4,1340.8,1308,1305.9L1308,1305.9z"/>
		<path class="st0" d="M1714.6,1056.2c-24.3,19.2-54.5,33.2-83.5,41.7c-28.9,8.6-31.5,11.1-47.7,59.7
			c-29,85.7-110,137.2-197.8,147.5c-35.8,4.2-39.6,4.2-59.6,34.1c-5.1,7.7-10.2,14.5-16.2,20.5c-26,26-25.6,29.8-10.2,41.7
			c186.7,141,488.4-92.9,451.3-334.1C1746.6,1036.6,1745.3,1033.5,1714.6,1056.2L1714.6,1056.2z"/>
	</g>
</g>
</svg>
