<?xml version="1.0" encoding="iso-8859-1"?>
<!-- Generator: Adobe Illustrator 25.0.0, SVG Export Plug-In . SVG Version: 6.00 Build 0)  -->
<svg version="1.1" id="Layer_1" xmlns="http://www.w3.org/2000/svg" xmlns:xlink="http://www.w3.org/1999/xlink" x="0px" y="0px"
	 viewBox="0 0 2000 2000" style="enable-background:new 0 0 2000 2000;" xml:space="preserve">
<style type="text/css">
	.st0{fill:#FFFFFF;}
	.st1{fill-rule:evenodd;clip-rule:evenodd;fill:#FFFFFF;}
</style>
<g id="Obstetrics__x26__Gynecology">
	<g>
		<path class="st0" d="M698.9,351.8c-17.6,19.7-27.8,38.1-32.3,54.8c-4.6,17.2-2.8,32.7,3.4,46c6.6,14.1,18.3,26.3,32.9,35.8
			c24,15.6,55.3,23.5,85.6,20.8c16.6-1.4,31.2,10.8,32.6,27.4c1,11.4-4.6,21.9-13.5,27.8C701,642.2,622,731.9,570.2,825.5
			c-51.7,93.6-76.2,190.9-73.7,283.8c2.5,92,31.5,180.1,86.8,256.1c42.5,58.4,100.7,109.8,174.3,150.5c11.8,6.5,17.5,19.7,15,32.3
			c-1.4,8.1-2.7,15.6-4.4,25.6c-3,17.3-7.1,40.6-11.1,63.4H696c4.5-26.2,9.4-53.9,12.9-73.8l1-5.6
			c-72.9-43.4-131.4-96.8-175.3-157.2c-62.5-85.9-95.3-185.6-98.1-290c-2.8-103.5,24.1-211.2,81-314.1
			c46.2-83.6,112.2-164,198.1-236.4c-16.2-5.2-31.6-12.4-45.4-21.4c-23.7-15.4-43-36-54.5-60.7c-12-25.6-15.5-54.9-7.1-86.7
			c3.4-12.9,8.8-26.1,16.5-39.5L698.9,351.8L698.9,351.8z M1572.4,351.8c-8.7,101-44,202.8-77.6,300
			c-41.3,119.2-79.9,230.9-59,314.8c11.4,45.6,31.3,91.9,51.7,139.5c64.4,150.1,133.9,312.3-0.2,531.1h-71.8
			c144.5-209.7,78-364.7,16.8-507.5c-21.4-50-42.3-98.6-54.8-148.5c-25.2-101,16.3-220.9,60.6-348.9c31.8-91.9,65.1-188.1,74-280.4
			L1572.4,351.8L1572.4,351.8z"/>
		<path class="st1" d="M813,1066.1c12.2,13.6,19.8,19.5,29.6,34.9c6.7-10.2,17.1-21.4,23.6-23.1c14.4-3.7,58.1-1,85.4-1.3
			c9.2-0.1,9.3-6,14.3-6.4c11.2-1,11.8-1.2,18.5-5.6c8.1-5.2,27.4,5.8,16,25.2c-4.2,7.2-14,15.4-35.2,19.2
			c-35.7,6.3-70.4,8.7-77.6,12.3c-6.2,3.2-13.1,33.4-14.9,48.2c-0.6,4.9-0.8,5.7,0.3,9.9c4.6,17.1,13.2,41.1,22.5,39.2
			c4.4-0.9,8.3-6.7,7.2-19.5c-2.4-27.8-14-46.9,37.4-62c26.4-7.7,70.2-11.4,106.3-1.8c70.5,18.7,109.8,84.3,96.1,155
			c-6.4,32.8-23.7,65-52.5,81.8s-69,18.4-98.1,7.3s-47-34.8-61.5-47.7c-38.6-34.5-55.2,14.4-120.9-10.3
			c-37.8-14.2-90-53.2-123.9-100.3c-52.8-73.4-75.6-192.9,11.1-232.8c33.1-15.2,65.7-22.7,90.3-25.5c24.5-2.9,24.8-10.9,24.2-33
			c-0.6-23.4-0.2-49.5,1.8-73.2c1.9-22.1,2.4-27.5,18.1-31.4c15.6-3.9,44.2-6.5,58.6-4.5c14.4,1.9,14.6,8.3,5.8,15.2
			c-8.8,6.8-24.1,15.1-33.3,22.4c-7.1,5.6-5.8,7.2-1.4,21.1c6.3,20,17.9,55.7,21.9,82c4,26.2-0.9,37.5-16.3,50.1
			C851,1024.1,825,1038,812,1045C798.5,1052.3,799.3,1051.9,813,1066.1L813,1066.1z"/>
		<path class="st0" d="M947.3,701.7c108.1,0,206.1,43.8,276.9,114.7c70.9,70.9,114.7,168.8,114.7,276.9s-43.8,206.1-114.7,276.9
			c-70.9,70.9-168.8,114.7-276.9,114.7s-206.1-43.8-276.9-114.7c-70.9-70.9-114.7-168.8-114.7-276.9s43.8-206.1,114.7-276.9
			C741.2,745.6,839.1,701.7,947.3,701.7L947.3,701.7z M1195.8,844.8c-63.6-63.6-151.5-102.9-248.5-102.9s-184.9,39.3-248.5,102.9
			s-102.9,151.5-102.9,248.5c0,97.1,39.3,184.9,102.9,248.5s151.5,102.9,248.5,102.9s184.9-39.3,248.5-102.9
			s102.9-151.5,102.9-248.5C1298.7,996.3,1259.4,908.5,1195.8,844.8L1195.8,844.8z"/>
	</g>
</g>
</svg>
