<?xml version="1.0" encoding="iso-8859-1"?>
<!-- Generator: Adobe Illustrator 25.0.0, SVG Export Plug-In . SVG Version: 6.00 Build 0)  -->
<svg version="1.1" id="Layer_1" xmlns="http://www.w3.org/2000/svg" xmlns:xlink="http://www.w3.org/1999/xlink" x="0px" y="0px"
	 viewBox="0 0 2000 2000" style="enable-background:new 0 0 2000 2000;" xml:space="preserve">
<style type="text/css">
	.st0{fill:#FFFFFF;}
</style>
<g id="Ophthalmology">
	<g>
		<circle class="st0" cx="1194" cy="1103" r="165.2"/>
		<path class="st0" d="M956.2,558.5c-105.6,0-191.3,85.9-191.3,191.3c0,87.6,58.8,162.2,140.6,184.6
			c50.2-85.9,138.1-147.2,240.5-162.2c1-7.4,1.5-15,1.5-22.4C1147.4,644.4,1061.5,558.5,956.2,558.5z M956.2,805.9
			c-31.5,0-57.1-25.6-57.1-57.1s25.6-57.1,57.1-57.1s57.1,25.6,57.1,57.1C1013.3,780.3,987.7,805.9,956.2,805.9z"/>
		<path class="st0" d="M1711.9,1424.5l-204.8-204.8c13.5-36.4,21.4-75.6,21.4-116.9c0-59.1-15.5-114.5-42.3-162.7
			c98.5-85.4,158-161.5,160.7-165.2c11.6-15,11.6-35.9,0-51c-12.6-16.2-311.4-396.8-690.3-396.8S278.2,708.4,265.9,724.6
			c-11.8,15-11.8,35.9,0,51c10.8,14,264.1,337,599.7,389.7c29,154.8,165.2,272.5,328.4,272.5c41.1,0,80.3-7.9,116.4-21.4
			l201.9,201.9c46.3,49.7,136.1,65,199.2,3C1764.3,1570.5,1765.8,1477.2,1711.9,1424.5z M860.4,1079.4
			c-243-46.8-444.1-256-507.9-329.6c72.1-82.5,317.8-339.2,603.6-339.2c284.8,0,531.5,256.5,603.6,339.2
			c-23.9,27.3-66.5,73.9-123.3,123.3c-53.2-56.1-125.5-94.3-206.8-102.7c0.5-6.6,1.2-13.8,1.2-20.7c0-151.1-123.1-274.2-274.5-274.2
			c-151.1,0-274.2,123.1-274.2,274.2c0,121.1,79.3,225.5,191,260.9C866.3,1032.8,862.4,1056,860.4,1079.4z M764.9,749.7
			c0-105.4,85.9-191.3,191.3-191.3s191.3,85.9,191.3,191.3c0,7.4-0.5,15-1.5,22.4c-102.7,14.8-190,76.3-240.5,162.2
			C823.7,912,764.9,837.4,764.9,749.7z M1194,1354.3c-88.4,0-165.9-45.8-210.7-115h36.4c22.9,0,41.6-18.5,41.6-41.6
			c0-22.9-18.5-41.6-41.6-41.6h-71.1c-3.9-17-5.9-35-5.9-53.2c0-10.1,1-19.9,2-29.8h143.5c22.9,0,41.6-18.5,41.6-41.6
			s-18.5-41.6-41.6-41.6H969.4c41.6-82,126.3-138.3,224.3-138.3c138.6,0,251.3,112.7,251.3,251.3
			C1445.3,1241.6,1332.5,1354.3,1194,1354.3z M1651.9,1563.8c-2.9,2.6-6.1,4.9-9.7,6.9c-9.6,6-21.8,7.9-33.8,6.5
			c-13.6-1.5-26.9-7.4-35.9-16.5l0,0l-185.3-184.8c0,0,0-0.2-0.2-0.2c30.5-21.4,57.1-48.2,78.8-78.5c0.2,0,0.2,0,0.5,0l0,0
			c0.2,0,0.2,0,0.5,0l186.6,186.6C1674.1,1504,1675.2,1542.7,1651.9,1563.8z"/>
	</g>
</g>
</svg>
