<?xml version="1.0" encoding="iso-8859-1"?>
<!-- Generator: Adobe Illustrator 25.0.0, SVG Export Plug-In . SVG Version: 6.00 Build 0)  -->
<svg version="1.1" id="Layer_1" xmlns="http://www.w3.org/2000/svg" xmlns:xlink="http://www.w3.org/1999/xlink" x="0px" y="0px"
	 viewBox="0 0 2000 2000" style="enable-background:new 0 0 2000 2000;" xml:space="preserve">
<style type="text/css">
	.st0{fill:#FFFFFF;}
	.st1{fill-rule:evenodd;clip-rule:evenodd;fill:#FFFFFF;}
</style>
<g id="Orthopedics">
	<g>
		<path class="st0" d="M507.5,680.6c51.2,34.8,107.2,69.7,163.8,102.7c62,36.1,124.7,69.8,183.1,98.6c56.1,27.7,88,63.1,105.3,106.6
			c16.4,41.2,18.3,87.3,15.3,140.2c-11.6,207.8,35.7,379.2,85.1,557.8l2.5,9h-75.2c-49.9-180.7-96.8-355.4-84.8-570.8
			c2.4-43.7,1.3-80.5-10.2-109.6c-10.7-26.8-31.7-49.3-70-68.2C762.5,917.5,698.2,883,635,846.2c-60.4-35.1-119.9-72.4-173.9-109.3
			l-5.8-4L507.5,680.6L507.5,680.6z M917.8,273.2c-0.5-0.5-1-0.9-1.5-1.4l51.3-51.3c79.7,71.4,154.7,145.3,224,222.4
			c70,77.8,134.9,159.6,193.8,246.2c2.6,3.8,9.8,13.9,17,24.2c43.8,62,91,128.8,96,250.7c5.2,126.2,12.7,245.8,22.7,372.6
			c9,114.1,19.7,230,32.4,359h-72.9c-12.8-130.5-23.4-245.6-32-353.3c-9.8-124.8-17.3-245-22.7-375.5c-4.1-100.2-45-158-82.9-211.7
			c-4.5-6.4-8.9-12.7-17.6-25.3c-56.4-82.9-119.3-162.1-187.8-238.3C1068.8,415.1,995.3,342.6,917.8,273.2L917.8,273.2z"/>
		<path class="st1" d="M1247,836.7c29.1,55.9,33.8,76.1,30.5,128.5c-2.7,44.1,55.3,43,65.1,8.6c13.5-47.3,16.2-97.9-19.1-151.4
			C1297.7,783.1,1228.4,800.9,1247,836.7L1247,836.7z M1213.2,1263.4c2.2,48.1,4.8,95.7,8.1,142.8l-67.6,67.6
			c-6.2-74.9-10.7-151.5-14-229.3c-38.6-6-73.4-15.1-70.9-61.9c3.7-69.9,269.2-191.3,307-8.8c7.2,35,12.1,89.5,17.2,158.2
			l-117.8,117.8c-9.6-71.4-24.1-131.8-44.9-168.7C1226.2,1273.5,1220.3,1267.8,1213.2,1263.4L1213.2,1263.4z M1226.2,1469.9
			c1.6,18.7,3.2,37.3,5,55.7c8.2,83.8,19,165.1,33.4,242.8H1191c-13.3-74.3-23.5-151.9-31.4-231.8L1226.2,1469.9L1226.2,1469.9z
			 M1397.8,1395.9c1.8,24.9,3.7,51.1,5.7,78.5c6.9,91,12,196,14.7,294.1h-128.1c1.5-84.4-0.6-175.1-8-256.9L1397.8,1395.9
			L1397.8,1395.9z M620.3,364.2C774.9,487.4,1004,711,1048,840.4c22.5,66.2-87.8,126.3-20.7,187.1
			C1161.2,1149,1298.7,968,1237,834.3c-27.4-59.3-109.9-141.9-202.9-244.1C939.2,485.9,811,358.1,716.2,268.4L620.3,364.2
			L620.3,364.2z"/>
	</g>
</g>
</svg>
