<?xml version="1.0" encoding="iso-8859-1"?>
<!-- Generator: Adobe Illustrator 25.0.0, SVG Export Plug-In . SVG Version: 6.00 Build 0)  -->
<svg version="1.1" id="Layer_1" xmlns="http://www.w3.org/2000/svg" xmlns:xlink="http://www.w3.org/1999/xlink" x="0px" y="0px"
	 viewBox="0 0 2000 2000" style="enable-background:new 0 0 2000 2000;" xml:space="preserve">
<style type="text/css">
	.st0{fill:#FFFFFF;}
</style>
<g id="Pediatric_Immunology__x26__Allergy_1_">
	<g>
		<path class="st0" d="M1624.8,605.7c36.5,31.1,90.7,3,84.4-45.2c-6.4-49.5-58.6-86.6-94.6-35.7c-11,2.1-27.5,5.8-38.2,6.7
			c-6-14.3-9.4-22.9-18.7-35.2c12-8.6,13.5-9.7,21.7-22c28.6,4,52.5-2.6,55.6-34.5c7.5-77.7-148.1-126.6-112.7-14.2
			c-5.3,5.6-6.5,7.7-10,14.7c-20.5-14.8-28.2-20.2-50.9-31.4c4-9.2,7.4-27.2,9.8-37.7c64.9-60.1,0.7-121.9-61.6-116.4
			c-49.3,7.6-70.7,74.3-29.1,103c-0.2,13.7-0.1,23.4-4.6,36.4c-19,1.7-24.9,2.1-42.9,8.3c-12-17.2-14.3-27.2-22.9-44.7
			c30.3-42.3,2.7-78.5-46.3-70.4c-68.3,11.4-88.8,91.2-21.8,99.2c8.5,14.8,17.3,31.2,24.8,46.5c-17,12.4-20.6,14-35.7,29.8
			c-9.5-3.1-14.6-5.4-23.7-9.7c-11.6-27.8-31.2-40.9-62.1-28.7c-52.7,20.8-63.3,140.7,28.8,100.1c6.5,5.1,11.5,8.9,17.4,14.6
			c-4.1,15.5-9.3,30.8-13.7,46.3c-7.1,2.1-16.7,5.3-23.7,6.4c-12.1-10.9-20.2-18-38-17.3c-67.6,4.4-56.2,127.1,9.1,121.3
			c17.9-1.6,22.1-12.4,33.6-23.3c11.2-4.6,15.3-4.5,27.1-4.1c4.2,13.2,7,23,10.2,36.6c-5.3,4.9-12.6,12.1-18.2,16.2
			c-19.4-0.2-43.7-5.9-58.5,9.6c-38.3,40.3,45.1,140,88.3,90.2c10.8-12.4,9-21.6,12.6-36.2c9.1-9.3,14.4-13.3,25.7-19.8
			c11.8,8.9,33.9,26.3,45.8,33.1l-0.3,1.6c-7.2,32-35.8,30-33.5,60.7c4.8,65.5,141.2,73.5,108.2-15.3c2-8.4,4.4-17.8,5.9-26.2
			c28.4,0,39.1-1.8,67-10c5.5,9,9.1,18.8,13.1,28.5c-7.3,26.2-5.9,60.7-9.9,88.9c-42.4,299.5-184.6,587.3-456.2,741.5
			c-94.3,53.5-125.3,37.8-213.7-18C432.2,1437.5,330,1061.6,331.9,680c0.4-34.4-13.7-153.2,31.4-154.7
			c171.2-5.5,391.5-52.6,532.4-144.5c14.6,10.1,46,26,62.5,34.2c18.9,9,123.7,58.2,138.9,53.7c6.5-1.9,9.2-20.4,7-25.4
			c-5.8-6.1-134.4-58.1-156.6-70.5c-66.9-37.3-42.5-31.5-108.9,2.8C704.2,445,549.3,484.5,398.9,492.3
			c-90.2,4.7-95.3,12.7-98.3,105.4c-5.4,166.8,3.6,335.1,44.7,497.4c64.2,253.3,222,486,457.1,608.9c31.4,16.4,61.6,31.1,97.9,30.1
			c84-2.3,239.7-130.5,296.6-191c147.3-156.6,240.1-364.7,273.1-576.6c3.2-20.8,4.1-42.4,9.2-62.7c83.2,4.7,110.3-75.2,53.5-100
			c-7.1-3.2-16.7-26.8-20.2-35.4c15.2-12.4,18.7-21.6,30.5-33.4c12.1,7,25.4,11.5,36.6,18.5c6.8,16.2,10.4,24,26.8,31.4
			c94.8,42.5,106.8-147.7,8.3-101.5c-12.2-5.6-22.5-10.4-35.2-14.8c4-21.2,7-37.8,8.8-59.4C1599.7,607.5,1613.2,606,1624.8,605.7z
			 M1548.7,394.4c32-5.3,60.9,35.8,53.8,45.6c-19.7,8.5-25.6-12.3-44.8,13.4c-7.6,8.4-9.7,11.2-14.9,20.9c-4.9-5.3-7-6.9-12.7-11.2
			C1580.1,401.3,1541.4,417.1,1548.7,394.4z M1512.4,866.4c-8,4.2-9.8,4.5-18.5,6.5c-25.7-8.5-7.4-22.2-9.9-41.3
			c-2.5-19.5-27.6-34-2.2-40.9l1.6-0.3c9.6,3.6,15.7,28.1,24.5,37.3C1520.4,840.7,1549.5,846.8,1512.4,866.4z M1637.8,713.1
			c16.6,3.1,18.4,13.2,11.5,26.3c-23.6,44.5-32.7,3.9-49.4-9.6c-88.3-61.8-67.1-10.1-119,22.8c-20.7,13.1-29.8,18.4-53,26.1
			c-60.2,20-74.9-22.2-92.5,60.2c-3,13.9,11.6,48.2-18,39.6c-17.5-5.1-24.3-1.5-28.8-21.1c22.3-15.9,40.1-45.9,35.5-73.3
			c-12.4-14.6-27.8-19.8-42.8-31.3c-50.3-38.4-25.2-34.5-79.8,5.4c-18.1,14.6-10,15.8-15.7,40.4l-8,5.4
			c-28.7-14.8-61.7-67.7-3.7-50.1c15.4-4.8,67.1-31.2,58.8-51.6c-5.9-14.3-24.5-67.7-33.4-69.9c-8.4-3.3-51.6,8.3-57.2,15
			c-31.7,38.3-45.5,1.7-37.6-32.2c3.7-15.6,63,11.5,101-5l1.7-0.7c8.1-28.6,4.1-45.7,23.7-73.6c-9.6-20.4-35.7-37-57-42.5
			c-9.6,2-29.4,13.1-36.7,6.8c-5.5-14.4,12.1-53.1,30.9-47.5c23,18.3,0.3,18.4,49.8,40.2c23.2,10.2,10.6,10.2,16.6,28.9
			c5.6,17.3,52.3-2.9,17.5-33.1c13.2-13.8,26.9-25.5,41.4-36.1c16.8-12.2-23.3-85.2-34.3-94.5c-8.9-3.7-22.1-3.1-26.6-12.3
			c0.5-16,46.8-33.5,56.7-25c2,11.1-17.4,23.4-14.1,32.4c5.9,16.2,15.6,35.1,21.6,50.9c18.7,49.5,52.1,25.7,99.3,21.7
			c18.1-15.8,30.8-76.8-4.4-96.4v-25.8c5.9-10,7.1-11.5,17.7-16.3c13.9,2.9,48.7,10.3,54.9,21.4c11.6,18.4-48.2,68.8-27.5,121.6
			c2.6,6.7,75.3,44.8,101.8,97.4c24.8,49.4,27.1,45.1,90.7,25.7c6.7-2.1,20-23,32.4-18.6c11.4,4,16.4,32.5,12.7,42.8
			c-6.3,17.8-29,1.1-37.2-0.1c-21.3-2.3-51.9-0.2-72.1,6.6c-8.4,2.8-17.1,71.4-22.4,89C1559.9,706.9,1604,713,1637.8,713.1z"/>
		<path class="st0" d="M1105.4,538c-48.4-12.2-93.1-30.6-139.1-49.7c-13.8-5.5-62.6-33.9-70.7-34.9c-147,65.8-249.7,105.9-416,128.5
			c-16.7,2.3-76.5,1.2-80.9,12.8c-8.7,22.6-2.9,191.7-0.9,225.5c18.3,310.4,131.9,604.4,405.9,775.1c47.1,29.3,73.1,56.9,124.7,31.1
			c197.2-98.5,334.2-290.2,402.5-495.9c6.3-18.9,37.4-111.5,30.8-124.7c-7.3-14.8-25.5-6.9-29.9,5.5c-14,38.9-31.7,102.7-43.2,143.9
			c-81,186.3-195.6,369.2-393,450.4c-39.7-15-66.7-32.4-101.4-56.3c-277.5-190.1-354.8-482.5-367-801.1
			c-1.7-43.4,0.4-88.3-0.4-131.7c130.5-6.7,241.6-34.5,364.6-79.7c31.7-11.7,73.1-36.3,104.2-43.5c63.1,17.4,122.3,64.1,197.3,73.5
			C1111.7,562.7,1127.7,543.6,1105.4,538z"/>
		<path class="st0" d="M1346.1,566.3c24.1-3.7,40.6-26.2,37-50.3c-3.6-24.1-26-40.7-50.1-37.3c-24.3,3.5-41.1,26.1-37.5,50.3
			C1299.2,553.4,1321.9,570.1,1346.1,566.3z M1333.2,505.1c6.2-2.2,13.1-0.9,18,3.4c5,4.3,7.2,10.9,5.9,17.4
			c-1.3,6.4-6,11.7-12.2,13.7c-9.5,3.1-19.7-2-22.9-11.4C1318.9,518.7,1323.8,508.4,1333.2,505.1z"/>
		<path class="st0" d="M1512,545c-4.7-21.1-25.6-34.5-46.7-29.9c-21.2,4.6-34.7,25.6-30,46.9c4.7,21.2,25.7,34.6,47,29.8
			C1503.4,587.1,1516.7,566.1,1512,545z M1486.8,555.3c-0.6,4.8-3.8,8.9-8.3,10.7c-6.8,2.7-14.4-0.5-17.3-7.2
			c-2.8-6.7,0.2-14.5,6.8-17.4c4.4-2,9.6-1.4,13.5,1.5C1485.4,545.7,1487.5,550.4,1486.8,555.3z"/>
		<path class="st0" d="M1281.7,606c-21.6,2.6-36.9,22.2-34.3,43.7c2.6,21.6,22.3,36.9,43.9,34.2c21.4-2.7,36.7-22.2,34-43.7
			C1322.7,618.8,1303.2,603.5,1281.7,606z M1288.6,659.9c-18.6,2-19.9-18.6-5.3-29.5C1305,629.4,1306.8,649.3,1288.6,659.9z"/>
		<path class="st0" d="M1521.8,638c-6.8,0.5-12.9,4.7-15.7,11c-2.8,6.3-2,13.6,2.1,19c4.1,5.5,10.9,8.3,17.7,7.3
			c10-1.5,17-10.6,15.9-20.7C1540.7,644.6,1531.8,637.2,1521.8,638z"/>
		<path class="st0" d="M1414.5,640.7c-36.6,18.5-21.3,67.4,17.2,56.5C1469.3,679.3,1455.1,636.5,1414.5,640.7z"/>
		<path class="st0" d="M1350.9,713.7c-9.5,2.4-17,9.9-19.4,19.4s0.6,19.6,7.8,26.3c7.2,6.7,17.5,8.9,26.8,5.7
			c13.7-4.6,21.2-19.2,17.1-33C1379.2,718.2,1364.9,710.1,1350.9,713.7z"/>
		<path class="st0" d="M993.9,770.6c-19-19-151.2-14.1-182-12.6c-59.7,11.9-36.9,130.5-38.8,183.3l-94.1-0.1
			c-113.2-0.1-93.6,15.3-96.4,113c9.5,103.7-27.8,120.7,92.9,120.5l97.5-0.1l0,100.4c-0.2,91.1,8.9,88.9,91.3,88.9l104.2-0.1
			c63.2-17.1,36-131.4,38.3-188.9c42.1-0.6,84,0.2,126.7,0.1c82-0.1,58.8-42.6,62.4-100c-0.4-102,25.9-130.6-88.1-130.5l-100.9,0.1
			C1005,908.3,1017,793.7,993.9,770.6z"/>
	</g>
</g>
</svg>
