<?xml version="1.0" encoding="iso-8859-1"?>
<!-- Generator: Adobe Illustrator 25.0.0, SVG Export Plug-In . SVG Version: 6.00 Build 0)  -->
<svg version="1.1" id="Layer_1" xmlns="http://www.w3.org/2000/svg" xmlns:xlink="http://www.w3.org/1999/xlink" x="0px" y="0px"
	 viewBox="0 0 2000 2000" style="enable-background:new 0 0 2000 2000;" xml:space="preserve">
<style type="text/css">
	.st0{fill:#FFFFFF;}
</style>
<g id="Pediatrics">
	<g>
		<path class="st0" d="M473.5,961.4c-65,9.5-118.7-10.7-154.5-66.9c-34.3-53.6-33.7-109.9-1.2-164.6c31.2-52.6,82.5-74.5,156.2-68.4
			c72.8-227.3,223.5-367.7,460.4-411.6c-40,23.4-72.8,54.1-94,95.8c-21.4,42.2-27.8,86.7-17.9,134.6c14.9-3.1,28.9-6,44.2-9.1
			c0-21.2-3-42.6,0.5-62.9c16.3-93.6,120.6-156.9,207.5-125.7c47.5,17,78.5,50.8,85.6,102c5.3,38.3-10.8,69.2-42.3,90.3
			c-28.9,19.3-60.7,24.9-93,7c-17.6-9.8-29.9-24.5-35.1-44.2c-5.3-19.9-1.1-37.8,14-51.9c14.2-13.2,31.5-21.5,50.5-13.5
			c9.9,4.1,19.1,13.3,24.9,22.6c7.3,11.7,2.3,26.1-10.1,32.3c-8.1,4-8.9,8.6-7.3,15.8c2.1,9.7,3.9,19.4,5.9,29.1
			c0.2,0.8,0.9,1.5,1.4,2.2c38.9-2.5,67.6-47.4,56-87.8c-17.2-60-91.4-82.2-142.6-42.7c-57.6,44.5-52.8,128.6,8.8,171.3
			c80.9,56.1,195,3.1,212.9-92.1c11.6-62.2-13.2-111.6-59.4-151.9c-5.7-5-11.9-9.3-20.4-15.8c43.8,8.6,82.8,21.7,119.9,39.8
			c157.1,76.7,257.9,200.4,305.6,368c3.3,11.7,6.1,23.6,7.9,35.5c1.2,7.9,4.7,9.8,12.4,10.3c87,4.9,148.6,73.6,144.7,160.8
			c-4,90-85.9,156-174.6,140.9c-1.7-0.3-3.5-0.4-3.8-0.4c-109.3,244.5-290.7,376.3-563.5,368.7
			C715.3,1349.6,555.3,1203.4,473.5,961.4z M857.1,1082.9c23.8,59.6,95.1,103.9,158.8,101.5c79.3-3,136.8-57.7,151.5-101.5
			C1064.2,1082.9,961.2,1082.9,857.1,1082.9z M1333.6,796.2c-8-53.5-57-100-104.3-99.5c-50.5,0.5-92.6,45.2-103.6,99.5
			c10,0,20,0.9,29.7-0.3c5.9-0.8,13-3.5,16.8-7.7c35.6-39.7,80.7-39.3,115.9,1.3c2.6,3,6.9,6.2,10.6,6.5
			C1310.1,796.8,1321.8,796.2,1333.6,796.2z M854.3,796.2c-13.1-60-62.6-102.7-110.1-99.4c-47.4,3.4-90.3,50-97.6,99.4
			c10.4,0,20.8,0.7,31-0.3c4.7-0.4,10.3-2.9,13.4-6.3c36.9-41.2,80.1-41.4,116.8-0.5c2.9,3.3,7.7,6.4,11.9,6.8
			C830.8,796.9,842,796.2,854.3,796.2z"/>
		<path class="st0" d="M445,1555.9c26.1-74.3,57.7-145.3,120.3-196.4c18-14.7,41-23.4,61.9-34.5c8.2-4.4,14.7-1.7,21.7,4.5
			c67.9,60,145.3,102.6,233.8,123.4c154.7,36.3,299,11,432.1-76.2c17.6-11.6,34.2-24.8,50.8-37.9c5.9-4.6,10.3-6.5,17.8-2.6
			c96.7,50.2,156,128.9,180.1,234.8c2.1,9.2-4.2,10.8-9.2,13.8c-64.9,38.3-133.6,68.4-204.7,92.8c-126.7,43.5-256.8,66-391,60.7
			c-188.2-7.4-358-68.5-510.3-179C447.3,1558.7,446.8,1557.9,445,1555.9z"/>
	</g>
</g>
</svg>
