<?xml version="1.0" encoding="iso-8859-1"?>
<!-- Generator: Adobe Illustrator 25.0.0, SVG Export Plug-In . SVG Version: 6.00 Build 0)  -->
<svg version="1.1" id="Layer_1" xmlns="http://www.w3.org/2000/svg" xmlns:xlink="http://www.w3.org/1999/xlink" x="0px" y="0px"
	 viewBox="0 0 2000 2000" style="enable-background:new 0 0 2000 2000;" xml:space="preserve">
<style type="text/css">
	.st0{fill:#FFFFFF;}
</style>
<g id="Pulmonology">
	<g>
		<path class="st0" d="M718.4,648.8c-360.8,133.8-354.1,600.8-350.6,842.9c0.2,11.3,0.3,22.1,0.4,31.7
			c120.9,16.3,209.8,19.4,274.8,5.3c63.2-13.7,103-44.9,128.5-98c40.4-83.9,44-233.2,42.7-332.6l64.8-42.9
			c2.5,99,4.8,293.7-48.3,404.1c-35,72.8-88.9,115.3-173.8,133.7c-77.8,16.9-182.1,12.3-324.1-8.2c-16.9-1.4-30.2-15.5-30.2-32.8
			c0-26.5-0.2-42.3-0.5-59.5c-3.7-257.9-10.9-755.4,393.3-905.4c74.8-27.7,120.9-16.4,149.8,17.1c26.3,30.4,32.9,76.8,32.9,126.6
			v62.1l-65.9,43.6V730.7c0-36.2-3.4-68.2-16.7-83.6C784.9,634.7,762,632.6,718.4,648.8L718.4,648.8z"/>
		<path class="st0" d="M1313.2,587.1c404.2,149.9,397,647.5,393.3,905.4c-0.2,17.2-0.5,33-0.5,59.5c0,17.3-13.3,31.4-30.2,32.8
			c-142,20.5-246.2,25.1-324.1,8.2c-84.9-18.4-138.8-61-173.8-133.7c-53.1-110.4-50.8-305-48.3-404.1l64.8,42.9
			c-1.3,99.4,2.3,248.7,42.7,332.6c25.6,53.1,65.4,84.3,128.5,98c65,14.1,153.9,11,274.8-5.3c0.1-9.5,0.3-20.4,0.4-31.7
			c3.5-242,10.2-709-350.6-842.9c-43.6-16.2-66.5-14.1-77.2-1.7c-13.3,15.4-16.7,47.4-16.7,83.6v105.7l-65.9-43.6v-62.1
			c0-49.8,6.6-96.1,32.9-126.6C1192.3,570.7,1238.5,559.3,1313.2,587.1L1313.2,587.1z"/>
		<path class="st0" d="M1022.7,879.1c264.1,174.8,300.5,198.9,501,450.1c7.5,9.5,6,23.3-3.5,30.8s-23.2,6-30.8-3.5
			c-48.6-60.8-87.3-108.1-122-147.3c-0.1,10.7-0.6,21.4-1.6,31.9c-3.1,31.8-10.8,62-22.8,88.6c-5,11-18,15.9-29,11
			c-11-5-15.9-17.9-11-29c10.1-22.4,16.6-48,19.2-74.9c2.5-25.7,1.7-52.5-2.5-79c-81.5-83.2-155.2-132.3-315.3-238.3
			c-160.1,106-233.8,155.1-315.3,238.3c-4.2,26.5-5,53.3-2.5,79c2.7,27,9.1,52.6,19.2,74.9c5,11,0.1,24-11,29c-11,5-24,0.1-29-11
			c-12.1-26.6-19.7-56.9-22.8-88.6c-1-10.5-1.6-21.1-1.6-31.9c-34.7,39.2-73.4,86.5-122,147.3c-7.5,9.5-21.3,11-30.8,3.5
			s-11-21.3-3.5-30.8c200.5-251.2,236.9-275.3,501-450.1C1001.9,868.6,1006.8,868.6,1022.7,879.1L1022.7,879.1z M946.7,852.7
			c-231.3,153.1-284.6,188.4-432.4,368.4c-7.7,9.3-21.4,10.7-30.8,3c-9.3-7.7-10.7-21.5-3-30.8c65.9-80.3,113.4-132.5,165.3-178.6
			c-5,0.5-10,0.9-15,1.1c-46.8,2.1-89.8-8.1-121.4-27.8c-10.3-6.4-13.4-19.9-7-30.2s19.9-13.4,30.2-7c24.4,15.2,58.5,23,96.4,21.3
			c35.3-1.6,73.4-11.4,109.8-31.3c48.2-34.9,106.1-73.3,183.7-124.6c8.9-5.9,16-9.8,16-22.5V429.2v-21.5c0-12.1,9.8-21.9,22-21.9
			s22,9.8,22,21.9v21.5v364.5C982.4,822.1,968.6,838.2,946.7,852.7L946.7,852.7z M1026.3,793.7c0-128.7,0-257.3,0-386
			c0-12.1,9.8-21.9,22-21.9c12.1,0,22,9.8,22,21.9V429v0.2v364.5c0,12.5,6.8,16.4,16,22.5c77.6,51.3,135.5,89.7,183.7,124.6
			c36.4,19.9,74.6,29.7,109.8,31.3c37.9,1.7,72-6.1,96.4-21.3c10.3-6.4,23.8-3.2,30.2,7c6.4,10.3,3.2,23.8-7,30.2
			c-31.6,19.7-74.7,29.9-121.4,27.8c-4.9-0.2-9.9-0.6-15-1.1c51.9,46.1,99.4,98.3,165.3,178.6c7.7,9.3,6.3,23.1-3,30.8
			c-9.3,7.7-23.1,6.3-30.8-3c-147.8-180.1-201.1-215.3-432.4-368.4C1039.9,838,1026.3,821.8,1026.3,793.7L1026.3,793.7z"/>
	</g>
</g>
</svg>
