<?xml version="1.0" encoding="iso-8859-1"?>
<!-- Generator: Adobe Illustrator 25.0.0, SVG Export Plug-In . SVG Version: 6.00 Build 0)  -->
<svg version="1.1" id="Layer_1" xmlns="http://www.w3.org/2000/svg" xmlns:xlink="http://www.w3.org/1999/xlink" x="0px" y="0px"
	 viewBox="0 0 2000 2000" style="enable-background:new 0 0 2000 2000;" xml:space="preserve">
<style type="text/css">
	.st0{fill:#FFFFFF;}
</style>
<g id="Urology">
	<g>
		<path class="st0" d="M755.2,592.8c2.2-5,4.2-10.2,5.9-15.4c9.5-28.4,12.7-59.3,6.7-88c-5.6-27.3-19.8-52.8-44.9-72.1
			c-12.7-9.7-28.2-18-47-24.4c-13.6-4.6-27.1-7.3-40.4-8.4c-48.2-3.9-93.6,14.5-131.6,47.1c-39.9,34.2-71.7,83.8-90.6,140
			c-9.2,27.4-15.3,56.4-17.7,86.1c-5.3,65.3,5.5,135.1,28.1,198c19.7,54.7,48.1,104.1,82.5,140.4c32.1,33.9,68.9,56,107.8,59.2
			c17.4,1.4,35.3-0.8,53.4-7.3c45.9-16.5,73.5-44.4,86.2-74.6c5.3-12.7,8-25.8,8.4-38.4c0.3-12.7-1.7-25.1-5.7-36.4
			c-4.3-12-11-22.9-19.8-31.8c8.3-5.3,17.2-9.7,26-12.7c11.4-3.9,26-6.5,37.1-0.4c1.6,0.9,3.1,1.9,4.5,3c3.3,5.3,6.7,10.9,9.9,16.6
			c0.5,1.3,1,2.6,1.5,3.9c6.7,18.6,10,38.7,9.4,59.1c-0.5,20.5-4.8,41.2-13,61.1c-18.9,45.3-58.6,86.4-123.2,109.6
			c-27.2,9.8-53.9,13.1-79.6,11c-55.5-4.5-106.2-33.9-148.7-78.9c-40.2-42.5-73.2-99.6-95.8-162.4c-25.6-71.3-37.9-150.3-31.8-224.2
			c2.8-34.6,10-68.7,20.9-101.2c22.5-66.9,60.9-126.3,109.4-167.8c50.4-43.2,111.6-67.5,177.5-62.1c18.1,1.5,36.7,5.3,55.5,11.6
			c25.7,8.7,47.5,20.3,65.6,34.2c38.1,29.3,59.6,68,68.1,109.4c8.3,40,4.2,82.3-8.7,120.6c-2.4,7.3-5.2,14.4-8.3,21.4
			c-16.9-7.9-34.1-15.3-51.3-23.1C759.3,594.7,757.3,593.8,755.2,592.8L755.2,592.8z M1196.2,618.8c-3.1-7-5.8-14.1-8.3-21.4
			c-12.9-38.3-17-80.6-8.7-120.6c8.6-41.4,30-80.1,68.1-109.4c18.1-13.9,39.8-25.6,65.6-34.2c18.8-6.3,37.4-10.1,55.5-11.6
			c65.9-5.4,127.1,18.9,177.5,62.1c48.5,41.6,86.9,101,109.4,167.8c10.9,32.4,18.1,66.6,20.9,101.2c6,73.9-6.2,152.9-31.8,224.2
			c-22.6,62.8-55.6,119.9-95.8,162.4c-42.5,45-93.2,74.4-148.7,78.9c-25.7,2.1-52.4-1.3-79.6-11c-64.5-23.2-104.3-64.4-123.2-109.6
			c-8.3-19.8-12.5-40.6-13-61.1c-0.5-20.4,2.7-40.5,9.4-59.1c0.5-1.3,1-2.6,1.5-3.9c3.2-5.7,6.6-11.3,9.9-16.6
			c1.4-1.1,2.9-2.2,4.5-3c11.1-6.2,25.7-3.5,37.1,0.4c8.8,3,17.7,7.4,26,12.7c-8.8,8.9-15.5,19.8-19.8,31.8
			c-4.1,11.3-6.1,23.7-5.7,36.4c0.3,12.6,3,25.6,8.3,38.4c12.6,30.2,40.3,58.1,86.2,74.6c18.2,6.5,36,8.8,53.4,7.3
			c38.8-3.2,75.7-25.2,107.8-59.2c34.4-36.4,62.8-85.7,82.5-140.4c22.6-63,33.5-132.8,28.1-198c-2.4-29.7-8.5-58.7-17.7-86.1
			c-18.9-56.2-50.7-105.7-90.7-140c-38-32.6-83.5-51-131.6-47.1c-13.4,1.1-26.9,3.8-40.4,8.4c-18.8,6.3-34.4,14.6-47,24.4
			c-25.1,19.3-39.3,44.8-44.9,72.1c-5.9,28.7-2.8,59.7,6.7,88c1.8,5.3,3.8,10.4,5.9,15.4c-2.1,1-4.1,1.9-6.1,2.8
			C1230.2,603.5,1213.1,610.9,1196.2,618.8L1196.2,618.8z M815.7,1417c4.1,24.2,16.1,43,35.2,58.3c29.2,23.4,70.6,35.8,106.9,42.3
			c17.5,3.1,33.6,11,46.6,22.6c13.1-11.7,29.2-19.5,46.6-22.6c36.3-6.5,77.7-18.9,106.9-42.3c19.1-15.3,31.1-34.1,35.2-58.3H815.7
			L815.7,1417z"/>
		<path class="st0" d="M485.6,597.5c-6.7-9.5-4.4-22.6,5.1-29.3s22.6-4.4,29.3,5.1c52.8,74.9,115.9,97.7,173.6,118.6
			c19,6.9,37.4,13.5,55,21.6c34.2,15.7,73.6,35.2,105.4,70.5c32.3,35.7,55.6,86.4,55.6,163c0,167.9,0,119.8,0,146.4
			c0,77.7,0.1,163.5,0.1,202.9c0,10.4-7.6,19.1-17.6,20.7l0,0c-51.1,8.5-83.4,23.1-101.4,41.9c-16,16.8-20.5,38.2-16.9,62.3
			c5.5,36.9,24.1,65.4,50.8,86.8c32.4,26,77.1,42.2,125.8,50.9c12.6,2.2,23.5,8.8,31.2,18s12.3,21,12.3,33.8h-0.1v36.4
			c0,11.6-9.4,21-21,21s-21-9.4-21-21v-36.4h-0.1c0-2.6-0.9-5-2.4-6.8s-3.7-3.1-6.2-3.5c-55.2-9.8-106.4-28.7-144.9-59.6
			c-34.8-27.9-58.9-65-66.1-113.5c-5.5-36.7,2-70,28.1-97.4c21.7-22.8,56.4-40.5,107.5-51.1c0-44,0-117.8-0.1-185.5
			c-0.1-156.6-0.1-22.6-0.1-146.4c0-52.9-12.6-90.4-31.5-118.1c-5.2-5-10.7-9-16.2-12.1c-21.9-12.1-47.2-10.8-71.1-2.7
			c-25.7,8.8-49.5,25.2-66.1,41.9c-7.8,7.9-13.9,15.5-17.6,22.2c-5.6,10.1-18.4,13.8-28.5,8.1c-10.1-5.6-13.8-18.4-8.1-28.5
			c5.6-10,14-20.9,24.5-31.4c20.7-20.7,50.2-41.1,82.4-52.1c9.1-3.1,18.5-5.5,28-6.9c-3.8-2-7.5-3.9-11.2-5.8
			c-22.3-10.9-63.5-9.3-106.3,0.5c-45.1,10.3-90.5,29.7-116.9,53.1c-8.7,7.7-22,7-29.7-1.7s-6.9-22,1.7-29.7
			c31.7-28.2,84.1-50.9,135.4-62.7c3.3-0.8,6.6-1.5,9.9-2.1C592,697.9,535.7,668.5,485.6,597.5L485.6,597.5z M1056.9,1647.2
			c0,11.6-9.4,21-21,21s-21-9.4-21-21v-36.4h-0.1c0-12.8,4.5-24.6,12.3-33.8c7.7-9.2,18.6-15.8,31.2-18
			c48.8-8.7,93.4-24.9,125.8-50.9c26.7-21.4,45.3-49.9,50.8-86.8c3.6-24.1-0.8-45.5-16.9-62.3c-18-18.9-50.3-33.4-101.4-41.9
			c-10.7-1.7-18.1-11.2-17.6-21.8c0-39.9,0-124.8,0.1-201.9c0-26.7,0,21.5,0-146.4c0-76.6,23.3-127.2,55.6-163
			c31.8-35.3,71.2-54.7,105.4-70.5c17.6-8.1,36-14.8,55-21.6c57.7-20.9,120.8-43.7,173.6-118.6c6.7-9.5,19.8-11.8,29.3-5.1
			s11.8,19.8,5.1,29.3c-50,71-106.4,100.4-160.5,121.5c3.3,0.7,6.6,1.4,9.9,2.1c51.3,11.8,103.8,34.5,135.5,62.7
			c8.7,7.7,9.5,21,1.7,29.7c-7.7,8.7-21,9.5-29.7,1.7c-26.4-23.5-71.7-42.8-116.9-53.1c-42.8-9.8-84-11.4-106.3-0.5
			c-3.7,1.9-7.5,3.8-11.2,5.8c9.5,1.5,18.8,3.8,28,6.9c32.2,11,61.8,31.4,82.4,52.1c10.5,10.5,18.9,21.4,24.5,31.4
			c5.6,10.1,2,22.9-8.1,28.5s-22.9,2-28.5-8.1c-3.7-6.7-9.7-14.3-17.6-22.2c-16.7-16.7-40.4-33.1-66.2-41.9
			c-23.9-8.1-49.2-9.5-71.1,2.7c-5.5,3.1-11,7.1-16.2,12.1c-18.9,27.7-31.5,65.2-31.5,118.1c0,123.8-0.1-10.2-0.1,146.4
			c0,67.7-0.1,141.5-0.1,185.5c51.1,10.7,85.7,28.3,107.5,51.1c26.1,27.4,33.6,60.7,28.1,97.4c-7.2,48.4-31.3,85.6-66.1,113.5
			c-38.5,30.8-89.7,49.8-144.9,59.6c-2.5,0.5-4.7,1.7-6.2,3.5s-2.4,4.2-2.4,6.8h-0.1v36.4H1056.9z M592.2,554.6
			c-4.4-10.8,0.8-23,11.6-27.4s23,0.8,27.4,11.6c22.3,54.9,75.7,78.7,132.1,103.8c12.5,5.6,25.1,11.2,37.6,17.2
			c13-1.1,24.1-5.2,32.9-11c10.2-6.7,16.7-15,18.5-22.6c2.7-11.3,14-18.2,25.3-15.5s18.2,14,15.5,25.3
			c-4.2,17.6-17.1,35.5-36.3,48.1c-1.7,1.1-3.5,2.3-5.4,3.3c67.2,42.9,121.3,110.9,121.3,259.6h-0.1v66.7c0,76.9-0.1,191.8,0,254.5
			h63.4c0.1-63,0-178.9,0-255.7v-65.4h-0.1c0-148.8,54.1-216.8,121.3-259.6c-1.9-1.1-3.7-2.2-5.4-3.3
			c-19.2-12.6-32.1-30.5-36.3-48.1c-2.7-11.3,4.3-22.6,15.5-25.3c11.3-2.7,22.6,4.3,25.3,15.5c1.8,7.6,8.4,15.9,18.5,22.6
			c8.8,5.8,20,9.9,32.9,11c12.5-6,25.1-11.6,37.6-17.2c56.4-25.1,109.8-49,132.1-103.8c4.4-10.8,16.6-16,27.4-11.6
			s16,16.6,11.6,27.4c-28.6,70.5-89.6,97.7-154,126.4c-88.6,39.5-184.4,82.2-184.4,266h-0.1v65.4c0,85.6,0.1,219.6,0,275
			c0.1,0.6,0.1,1.2,0.1,1.8c0,11.6-9.4,21.1-21.1,21.1H951.7v-0.1c-11.6,0-21-9.4-21-21c-0.1-54-0.1-188.9,0-275.5v-66.7h-0.1
			c0-183.8-95.8-226.5-184.4-266C681.8,652.3,620.8,625.1,592.2,554.6L592.2,554.6z"/>
	</g>
</g>
</svg>
