<?xml version="1.0" encoding="iso-8859-1"?>
<!-- Generator: Adobe Illustrator 25.0.0, SVG Export Plug-In . SVG Version: 6.00 Build 0)  -->
<svg version="1.1" id="Layer_1" xmlns="http://www.w3.org/2000/svg" xmlns:xlink="http://www.w3.org/1999/xlink" x="0px" y="0px"
	 viewBox="0 0 2000 2000" style="enable-background:new 0 0 2000 2000;" xml:space="preserve">
<style type="text/css">
	.st0{fill:#FFFFFF;}
</style>
<g id="Vascular">
	<path class="st0" d="M1593.4,1041.7c-15.3-19.4-33.7-37-56.7-54c11.9-8.5,25-18,37.6-28.9c53.3-46.1,78.4-104.6,68.8-160.6
		c-3-17.7-12.7-33.1-27.4-43.4c-6.3-4.5-13.2-7.8-20.5-9.8c11.9-11.4,19.2-26.6,20.5-43.1c1.4-17.8-4.2-35.2-15.9-48.8
		c-24-28.1-66.4-31.4-94.5-7.5c-23.5,20-57.5,26.1-87.1,26.9c0.5-5.8,2-12.5,4.6-19.4c5-13.4,12.6-27.4,20.6-42.2
		c8.4-15.3,18.8-34.3,26.9-55.4c15.5-39.6,21.5-83.5,17.5-126.9c-4.1-43.7-18.1-85.7-40.5-121.5c-19.6-31.3-61-40.9-92.4-21.4
		c-31.3,19.6-40.9,61-21.4,92.4c21.6,34.7,27.2,79.2,15.5,118.5c-22.7-9.2-45.8-18.8-62.1-31.6c-15-11.8-19.8-25.6-18.9-30
		c7.1-36.3-16.7-71.6-53-78.6c-36.3-7.1-71.6,16.7-78.6,53c-6.2,31.3-1.4,64.2,13.7,95.1c12.3,25.1,30.9,47.9,53.7,65.9
		c28.8,22.8,60.5,36.6,89.2,48.3c-3.7,12.1-6.3,24.3-7.7,36.4c-57.5-9.5-95.2-14.5-112.1-14.9c-56.3-1.5-109.2,10.6-152.2,34.2
		c-26.3-89.6-15.3-189.4,31-272.3c18.9-34,9.8-77-21.1-100L978,262.5c-17.7-13.2-40.2-18.2-61.8-13.8s-40.4,17.9-51.5,36.9
		c-38.4,65.9-62.8,138.6-72.8,216c-12.7,98.6-0.3,197.7,35.7,286.5c38.4,94.8,98.2,170.9,156,244.5l0.7,0.9
		c24,30.6,47.1,60,67.5,89.5c-33.8,2.4-76.7,7.1-99.5,15.8c-76.3,29.1-137.8,78.5-194.2,126.7l-5.9,5.1c-3.1,2.7-6.2,5.3-9.4,8
		c-7.7,6.7-15.8,13.6-24,20.5c-4.4-15.1-7.1-32-8-51.3c17.3-5.1,33.9-12.5,48.8-21.8c56.7-35.7,85-90.9,98.9-131
		c16-46.2,20.7-93.5,23.5-137.9c2.2-36.8-25.9-68.7-62.7-71.1h-0.1c-36.8-2.2-68.7,25.9-71.1,62.8c-2.5,40.4-6.3,73.3-16.4,102.2
		c-2.7,7.9-5.9,15.2-9.5,22c2.2-44.3-0.5-83.4-7.9-118.9c-12.1-56.7-36.8-102.9-73.5-137.4c-27-25.3-69.5-23.9-94.8,3.1
		s-23.9,69.5,3.1,94.9c31.9,29.9,44.8,86.8,38.2,169.1c-1.1,13.7-2.5,27.1-4.2,43.3l-0.4,4.3c-1.7,16.8-3.4,34.2-4.7,51.7
		c0,0.3,0,0.6,0,0.9c-3.1,45.6-4.1,105.3,15.5,164c3.7,10.9,8,21.5,12.8,31.8c-1.2,0.6-2.4,1.3-3.6,1.9
		c-53.6,27.6-108.5,35.3-150.5,21c-17-5.8-35.2-4.6-51.2,3.3c-16.1,7.9-28.1,21.6-33.9,38.6s-4.6,35.2,3.3,51.2
		c7.9,16.1,21.6,28.1,38.6,33.9c27.9,9.5,57.8,14.4,89,14.4c54,0,111.5-14.9,166.2-43.1c60.6-31.2,111.1-73.5,159.5-115
		c1.9,2.7,3.9,5.5,5.9,8.2c8.1,11.1,16.4,21.7,23.5,30.6c20.1,25.6,39.1,49.9,49.8,75.2c18.6,43.8,12.7,97-15.1,135.5
		c-10.5,14.5-14.7,32.3-11.7,50c2.9,17.6,12.5,33.1,27,43.6c11.4,8.3,25,12.7,39.1,12.7c21.5,0,41.9-10.4,54.5-27.9
		c26.8-37.3,43.8-82,49.2-129.4c5.2-47.3-1.5-94.7-19.5-137c-17.8-41.9-44.3-75.7-67.8-105.5c-6.8-8.6-14-17.8-21-27.4
		c-3.1-4.3-6.1-8.5-8.8-12.5c25-16.8,48.4-29.2,71.1-37.8c12.9-4.9,72.5-9.2,119.3-10c26.4,91.5,12.9,193.2-17.3,326
		c-9.3,41.1,16.4,82.6,57.4,92.4l63.8,15.4c6,1.4,12,2.1,18,2.1c14.3,0,28.4-4,40.9-11.8c17.6-11,29.9-28.2,34.5-48.3
		c11.8-51,26.2-118.4,32.9-187.8c9.8-100.3,1.9-187.9-24.2-267.8c-36-109.8-103-195.2-167.9-277.8c-26.3-33.4-53.3-67.9-76.5-102.4
		c25.6-15.9,61.1-21.2,88.9-20.5c6.7,0.2,13.7,0.6,21.3,1.3c0,22,2.7,44.3,7.8,66.6v0.1c11.8,49.6,36.2,94.4,70.6,129.7
		c36.5,37.6,79.1,60.9,120.3,83.4l1.4,0.8c0.1,0.1,0.3,0.2,0.4,0.2c1.4,0.7,2.8,1.5,4.4,2.4c1.1,0.6,2.1,1.2,3.2,1.8
		c35.2,19.3,68.5,38.8,89,64.7c13.2,16.7,22.5,42.3,14.8,58.9c-15.6,33.4-1.1,73.4,32.4,89.1c8.8,4.1,18.3,6.2,28.3,6.2
		c26,0,49.9-15.2,60.8-38.8c15.2-32.6,19.1-70.1,11.4-108.3C1629.2,1099.8,1614.5,1068.5,1593.4,1041.7z M1581,1220.1
		c-3.1,6.7-9.9,11.1-17.3,11.1c-2.9,0-5.5-0.6-7.9-1.7c-9.6-4.5-13.8-15.9-9.3-25.4c17.8-38.6,0-82.8-20.7-108.9
		c-26.1-33-63.9-55.3-103.6-77.1c-0.9-0.5-1.8-1-2.7-1.5c-1.7-0.9-3.5-2-5.5-3l-1.2-0.6c-38.1-20.9-77.4-42.4-108.9-74.8
		c-28.3-29.1-48.4-66.2-58.2-107.3c-5.9-25.4-7.8-50.6-5.8-74.9c1.1-12.7-8-24-20.6-25.8c-18.4-2.6-33.8-4-48.3-4.3
		c-56.4-1.5-108.1,15.7-138.6,45.9c-0.1,0.1-0.2,0.2-0.2,0.2c-0.1,0.1-0.2,0.2-0.3,0.3c-0.2,0.2-0.3,0.3-0.4,0.5
		c-0.4,0.4-0.7,0.8-1,1.2c-0.2,0.2-0.4,0.5-0.6,0.7c-0.3,0.4-0.6,0.7-0.8,1.1c-0.2,0.3-0.4,0.6-0.6,0.9c-0.2,0.3-0.4,0.7-0.6,1
		c-0.2,0.4-0.4,0.8-0.6,1.1c-0.1,0.3-0.3,0.6-0.4,0.9c-0.2,0.4-0.3,0.8-0.5,1.2c-0.1,0.3-0.2,0.6-0.3,0.9c-0.1,0.4-0.2,0.8-0.4,1.3
		c-0.1,0.3-0.2,0.7-0.2,1c-0.1,0.4-0.2,0.8-0.2,1.2c-0.1,0.4-0.1,0.7-0.2,1.1c0,0.4-0.1,0.7-0.1,1.1c0,0.4-0.1,0.8-0.1,1.2
		c0,0.3,0,0.7,0,1c0,0.4,0,0.9,0.1,1.3c0,0.3,0.1,0.7,0.1,1c0.1,0.4,0.1,0.9,0.2,1.3c0.1,0.3,0.1,0.7,0.2,1c0.1,0.4,0.2,0.8,0.3,1.2
		c0.1,0.4,0.2,0.8,0.4,1.1c0.1,0.3,0.2,0.7,0.4,1c0.2,0.4,0.4,0.9,0.6,1.3c0.1,0.3,0.3,0.6,0.4,0.8c0.2,0.5,0.5,0.9,0.8,1.4
		c0.1,0.2,0.2,0.4,0.3,0.6c0.1,0.1,0.2,0.3,0.3,0.4c0,0,0,0,0,0.1c26.7,42.4,59.3,83.8,90.7,123.9c62.3,79.3,126.7,161.4,160,263.1
		c24,73.4,31.2,154.6,22.1,248.2c-6.5,66.6-20.4,132.1-31.9,181.7c-1.7,7.7-6.4,14.2-13.1,18.4c-6.8,4.2-14.8,5.5-22.4,3.7
		l-63.7-15.4c-15.6-3.7-25.3-19.5-21.8-35.2c33.3-146.2,47.1-257.9,12.7-362.8c0-0.1,0-0.1-0.1-0.2l-0.4-1.1
		c-0.5-1.6-1.2-3.6-2.1-5.8c-4.1-10-14.2-15.8-24.4-14.9c-26.2,0-122.9,2.3-151.6,13.2c-32.1,12.1-65,30.7-100.5,56.7
		c-9.8,7.2-12.7,20.5-6.8,31.1c6.3,11.1,14.1,23.2,23.4,35.7c7.4,10.2,15,19.8,22,28.7c22.6,28.8,46,58.5,61.3,94.6
		c14.8,34.8,20.3,73.8,16,112.9c-4.5,39.1-18.5,76.1-40.5,106.7c-3.6,5-9.4,7.9-15.6,7.9c-3.9,0-7.8-1.3-10.9-3.5l-0.1-0.1
		c-4.2-3-6.9-7.4-7.7-12.4s0.4-10,3.3-14.1c37.4-51.9,45.4-123.4,20.4-182.3c-13.2-31.2-35.1-59-56.3-86.1
		c-6.9-8.7-14.8-18.8-22.6-29.4c-6.9-9.3-13.3-18.7-19.1-28.2c-3.7-5.9-9.8-10-16.7-11.1s-13.9,0.9-19.3,5.4
		c-2.6,2.2-5.1,4.4-7.7,6.6c-2.2,1.9-4.3,3.7-6.6,5.6c-48.4,41.4-98.4,84.3-156.7,114.3c-48,24.7-97.8,37.8-144.2,37.8
		c-25.8,0-50.5-4-73.5-11.8c-4.8-1.6-8.7-5.1-11-9.6c-2.2-4.6-2.6-9.8-0.9-14.6c1.6-4.8,5.1-8.7,9.6-11c4.6-2.2,9.8-2.6,14.6-0.9
		c54.3,18.4,122.8,9.7,187.9-23.8c9.2-4.7,17.7-9.5,26.2-14.7c11.1-6.8,14.8-21.2,8.3-32.5c-8.1-13.9-14.8-29-20.1-44.6
		c-17-50.9-15.9-104.8-13.1-146.1c0-0.3,0-0.6,0-0.9c1.2-16.5,2.9-33.4,4.5-49.6l0.4-4.2c1.7-16.4,3.1-30,4.3-44.2
		c7.8-97.6-10.1-167.6-53.2-208c-7.7-7.2-8.1-19.4-1-27c7.2-7.7,19.4-8.1,27-1c29.4,27.6,49.4,65.4,59.4,112.3
		c7.7,36.6,9.6,78,5.7,126.6c-0.9,11.7-2.1,23.7-3.3,35.3l-0.9,8.9c-0.8,8.6,3,16.9,10,21.9s16.1,5.8,23.9,2.2
		c3.8-1.7,7.4-3.7,10.9-5.9c27.5-17.4,50-48,63.4-86.3c11.9-34.1,16.2-70.6,18.9-114.9c0.7-10.5,9.8-18.5,20.3-17.9
		c10.5,0.7,18.5,9.8,17.9,20.3c-2.5,40.9-6.8,84.4-20.9,125.1c-11.3,32.8-34.3,77.8-79.1,106c-15.5,9.7-33.4,16.6-52,20
		c-11.4,2.1-19.7,11.9-19.7,23.5c-0.1,35.5,4.1,65.5,12.9,91.7c0,0.1,0.1,0.2,0.1,0.2c3.6,10.3,7.7,20,12.3,28.8
		c3.3,6.4,9.3,10.9,16.4,12.4c7.1,1.5,14.4-0.3,20-4.8c17.3-14,34.3-28.6,50-42.1c3.1-2.6,6.2-5.3,9.4-8l5.9-5
		c53.2-45.4,110.9-92,180.1-118.3c18.2-6.9,68.9-12.9,126.2-15c13.2-0.5,23.6-11.6,23.1-24.8c0-0.2,0-0.3,0-0.5s0-0.4,0-0.6
		c0-0.6-0.1-1.1-0.2-1.7c-0.1-0.4-0.2-0.8-0.2-1.3c-0.1-0.3-0.1-0.7-0.2-1c-0.2-0.7-0.4-1.3-0.6-1.9c0-0.1,0-0.2-0.1-0.2
		c-0.6-1.6-1.3-3.2-2.2-4.7c-26.7-43.5-58.9-84.6-93.1-128.1l-0.7-0.9c-56-70.6-113.7-144-149.5-232.5
		c-32.9-81.2-44.2-171.9-32.6-262.4c9.1-71,31.5-137.7,66.6-198c4.3-7.4,11.3-12.3,19.6-14c8.4-1.7,16.7,0.2,23.5,5.2l52.9,39.5
		c11.7,8.7,15.1,25.2,7.9,38.1C981.9,429,964.7,487,960.4,546.2c-4.4,59.6,4.4,119.5,25.4,173.2c1.2,2.9,2.8,5.5,4.9,7.7
		c0.1,0.1,0.1,0.1,0.2,0.2c0.2,0.2,0.3,0.3,0.5,0.5c8.3,8.4,21.7,9.6,31.4,2.3c38.1-28.7,91.1-43.6,149.2-42.1
		c7.2,0.2,32.9,2.1,117.3,16.3c1.5,0.2,2.5,0.4,3.1,0.5c1.9,0.3,3.7,0.7,5.5,1.1c1.9,0.4,3.8,0.8,5.7,1.1c7.2,1.3,14.6-0.7,20.1-5.4
		c5.5-4.8,8.6-11.8,8.3-19.1c-0.7-19,2.8-39.6,10-59.4c1-2.8,2.2-5.7,3.5-9c5-12.2-0.8-26.1-12.9-31.2c-4.2-1.8-9.1-3.8-14.3-5.9
		c-29-11.8-59-24.1-85-44.6c-17.2-13.5-31.1-30.6-40.3-49.3c-10.5-21.4-13.9-43.8-9.7-64.7c2-10.3,12-17.1,22.4-15.1
		c10.3,2,17.1,12,15.1,22.4c-4.9,25.4,9.3,55.5,36.3,76.8c22.1,17.4,49.3,28.4,75.7,39.2c2.6,1.1,5.3,2.2,7.9,3.3
		c3.4,1.4,6.7,2.7,10,4.1c0.3,0.1,0.6,0.2,0.8,0.3c0.7,0.3,1.8,0.8,3.1,1.2c11.3,3.8,23.7-1.4,29-12c2.2-4.5,4.4-9.3,6.3-14.5
		c21.5-55.5,15.4-121.2-15.9-171.6c-5.6-9-2.8-20.8,6.1-26.3c9-5.6,20.8-2.8,26.4,6.1c18.5,29.6,30,64.3,33.4,100.6
		c3.4,36-1.6,72.3-14.4,105c0,0.1,0,0.1-0.1,0.2c-7,18.1-16.1,34.9-24.2,49.7c-8.5,15.7-17.3,31.8-23.4,48.4
		c-3.5,9.3-13.9,41.6-3,68.8c3.5,8.8,11.8,14.7,21.2,15.1c60.3,2.8,107.6-10,140.5-38.1c8-6.8,20-5.9,26.9,2.1
		c3.3,3.9,4.9,8.8,4.5,13.8c-0.4,5.1-2.8,9.7-6.6,13c-46.5,39.5-115.5,54.9-199.7,44.4c-16.3-2.1-33.5-5-55.8-9.2
		c-6.9-1.3-14,0.4-19.5,4.8c-5.5,4.4-8.8,10.9-9,17.9c-1.8,52.7,18.4,106,53.9,142.6c22.2,22.9,49.2,39.6,72.7,52.9
		c9.4,5.3,21.1,3.7,28.7-3.9c15.1-15,32.4-27.4,49.1-39.3l0.8-0.6c11.9-8.5,24.2-17.3,35.5-26.9c11-9.5,46.4-43.5,40.1-80.9
		c-1.8-10.4,5.2-20.2,15.6-22c5-0.9,10.1,0.3,14.3,3.2c4.2,2.9,6.9,7.3,7.8,12.3c6.7,39.1-12.6,81.4-52.8,116.2
		c-12.4,10.7-25.6,20-38.3,29.1l-0.1,0.1l-2.7,1.9c-7.5,5.4-14.6,10.5-21.5,15.8c-6.2,4.8-9.7,12.3-9.3,20.2
		c0.4,7.8,4.6,15,11.2,19.1c32.3,20.2,55.6,40.1,73.4,62.7c16.5,20.9,28,45.3,33.1,70.3C1594.5,1169.7,1591.8,1196.9,1581,1220.1z
		 M1510.9,820.9c1.1,6.5-7.8,22.3-24.1,36.4c-9.5,8.2-20.4,16-32,24.2l-0.9,0.6c-13.6,9.8-27.6,19.8-41.3,31.6
		c-16.3-9.9-33.2-21.6-46.8-35.7c-20.3-21-33.9-49.3-38.6-79.4c10.1,1.7,19.4,3.1,28.5,4.2c58.6,7.3,111.5,3.4,156.7-11.3
		C1509.7,800.9,1509.1,810.9,1510.9,820.9z"/>
</g>
</svg>
